<?xml version="1.0" standalone="no"?>
<!DOCTYPE svg PUBLIC "-//W3C//DTD SVG 20010904//EN"
 "http://www.w3.org/TR/2001/REC-SVG-20010904/DTD/svg10.dtd">
<svg version="1.0" xmlns="http://www.w3.org/2000/svg"
 width="121.000000pt" height="121.000000pt" viewBox="0 0 121.000000 121.000000"
 preserveAspectRatio="xMidYMid meet">
<metadata>
Created by potrace 1.14, written by Peter Selinger 2001-2017
</metadata>
<g transform="translate(0.000000,121.000000) scale(0.100000,-0.100000)"
fill="#000000" stroke="none">
<path d="M259 1177 c0 -1 -2 -12 -3 -25 -2 -17 1 -21 13 -17 14 4 14 3 0 -8
-17 -13 -23 -91 -7 -81 5 3 6 9 3 14 -3 5 0 12 6 16 7 4 10 3 6 -2 -3 -5 1
-20 10 -34 8 -14 12 -18 10 -10 -4 13 10 15 82 16 l87 0 3 -43 c2 -42 1 -43
-31 -44 -18 -1 -40 -2 -48 -3 -8 -1 -27 2 -43 6 -17 4 -25 3 -21 -3 3 -6 -6
-8 -22 -5 -52 10 -55 -1 -54 -196 1 -134 4 -177 13 -171 9 5 9 3 0 -8 -15 -19
-14 -81 1 -72 6 4 5 0 -2 -9 -8 -10 -9 -19 -3 -22 5 -3 12 0 14 6 4 10 6 10 6
1 1 -7 7 -10 15 -7 8 3 17 0 22 -7 4 -7 3 -10 -2 -6 -6 3 -16 1 -24 -5 -13 -8
-12 -9 2 -5 9 3 19 3 22 -1 12 -11 43 -8 43 4 0 10 -5 10 -21 2 -17 -8 -19 -8
-9 2 13 14 95 21 86 7 -3 -4 -11 -6 -19 -3 -7 3 -16 0 -20 -6 -4 -7 -3 -8 4
-4 7 4 12 2 12 -5 0 -8 4 -8 15 1 11 9 19 10 28 1 9 -7 17 -7 23 -1 15 15 15
-31 1 -49 -9 -12 -9 -13 1 -7 9 5 12 -4 13 -36 1 -24 1 -47 0 -52 -1 -4 3 -14
9 -20 5 -7 7 -16 3 -20 -12 -11 -12 -37 0 -29 7 4 8 0 3 -12 -5 -15 -4 -16 9
-5 9 7 15 8 15 2 0 -6 8 -9 18 -7 26 4 42 -14 42 -47 0 -20 4 -27 13 -22 9 6
9 4 -1 -7 -15 -16 -16 -29 -1 -29 5 0 7 6 3 13 -4 6 -3 8 1 4 17 -15 14 -39
-3 -33 -15 5 -15 5 0 -7 10 -8 15 -17 11 -20 -3 -4 -1 -7 6 -7 7 0 9 -4 6 -10
-3 -5 -1 -10 5 -10 6 0 8 -4 5 -10 -3 -5 -1 -10 5 -10 6 0 10 8 8 17 -1 10 1
24 5 30 5 7 5 13 1 13 -3 0 4 9 17 20 13 11 20 20 14 19 -29 -4 -34 2 -15 21
17 17 18 24 9 41 -8 15 -8 19 0 15 6 -4 11 0 11 10 0 14 3 15 12 6 7 -7 17
-12 22 -12 6 0 4 5 -4 10 -12 8 -11 10 8 10 20 0 28 15 23 44 -1 5 6 6 16 2
17 -6 17 -5 1 8 -11 8 -18 27 -18 45 0 18 -4 30 -9 26 -5 -3 -13 -1 -16 5 -4
6 -1 9 6 8 6 -2 14 3 17 11 3 8 0 11 -7 7 -6 -4 -11 -2 -11 3 0 6 4 11 10 11
13 0 9 70 -4 70 -6 0 -3 5 7 11 13 8 22 7 33 -1 10 -9 14 -9 14 -1 0 6 5 11
11 11 5 0 8 -4 5 -8 -3 -5 10 -4 29 2 19 6 35 15 35 19 0 5 -6 5 -12 1 -9 -6
-9 -3 0 9 8 9 12 22 9 29 -3 8 -6 6 -6 -5 -1 -10 -5 -16 -11 -12 -5 3 -7 11
-4 18 3 10 -9 12 -52 9 -35 -2 -54 0 -50 7 4 5 2 13 -4 16 -6 4 -9 1 -8 -7 2
-10 -17 -14 -75 -16 -49 -2 -76 1 -73 7 4 5 2 13 -4 16 -6 4 -9 1 -8 -7 2 -10
-20 -13 -99 -14 -92 -1 -104 1 -120 20 -17 19 -17 20 0 7 10 -8 17 -9 17 -3 0
6 -8 16 -17 21 -10 6 -13 11 -8 11 6 0 11 9 12 20 1 13 -2 18 -9 14 -6 -4 -4
3 5 17 9 13 17 30 16 39 0 10 -2 11 -6 3 -2 -7 -10 -13 -16 -13 -7 1 -1 10 13
22 22 19 23 20 5 16 -15 -4 -21 0 -21 13 0 14 3 15 13 7 10 -8 12 -7 8 3 -4
10 1 15 13 15 17 0 19 -8 17 -65 -3 -77 8 -90 73 -91 23 0 42 -4 42 -10 0 -5
4 -10 9 -10 5 0 9 6 8 13 -1 31 4 47 14 45 6 -2 14 4 16 12 4 12 3 12 -5 1 -7
-10 -11 -10 -17 -1 -4 7 -1 16 6 21 11 7 11 9 1 9 -8 0 -10 5 -5 13 15 24 13
47 -5 48 -14 0 -14 2 3 9 11 5 15 9 9 9 -7 1 -14 12 -16 26 -5 22 -3 24 11 13
10 -8 9 -5 -3 10 -11 12 -23 22 -28 22 -5 0 -16 7 -24 15 -14 13 -13 15 8 16
13 0 17 3 11 6 -33 13 -6 21 65 19 76 -1 77 -1 77 -28 1 -15 -2 -26 -5 -25 -3
0 -15 -2 -27 -7 -23 -7 -32 -26 -13 -26 6 0 10 5 10 12 0 6 3 8 7 4 5 -4 1
-13 -8 -19 -13 -10 -16 -32 -16 -104 0 -51 4 -90 9 -87 4 3 6 9 4 13 -3 4 0
13 5 21 7 11 8 7 5 -12 -4 -24 -1 -28 20 -28 14 0 22 -4 19 -10 -3 -5 -1 -10
4 -10 6 0 11 6 11 14 0 14 38 14 62 0 10 -6 9 -3 -1 9 -12 15 -12 17 3 11 9
-3 16 -1 16 5 0 6 -4 11 -10 11 -5 0 -10 5 -10 11 0 5 5 7 10 4 6 -3 10 1 10
10 0 10 -5 13 -12 9 -6 -4 -4 3 5 16 14 20 14 25 1 45 -10 16 -12 25 -5 30 6
3 11 11 11 17 0 6 -7 5 -17 -3 -17 -13 -17 -13 0 7 20 24 22 40 5 50 -8 5 -9
2 -5 -9 3 -9 1 -19 -5 -23 -6 -4 -9 -3 -5 2 6 11 -17 46 -30 45 -4 -1 -8 10
-8 23 -1 21 4 25 36 28 21 2 35 -1 32 -5 -3 -5 4 -4 16 3 12 6 18 16 15 22 -4
6 -3 8 3 5 6 -4 14 0 17 9 8 22 8 26 -4 19 -5 -3 -10 -2 -10 2 0 5 -25 10 -55
11 -62 1 -79 8 -68 25 7 12 13 32 15 53 1 5 12 10 25 10 13 0 22 -5 19 -11 -2
-7 2 -12 10 -12 8 0 13 6 10 12 -3 8 13 12 49 12 33 0 52 -4 51 -11 -2 -6 -1
-8 1 -3 3 4 10 4 15 1 6 -4 8 -2 4 4 -3 6 -3 13 2 16 7 4 9 42 4 106 -2 21 -7
21 -297 19 -162 0 -295 -2 -296 -2z m151 -319 c0 -22 -5 -28 -22 -29 -13 0
-17 -3 -10 -6 10 -4 9 -10 -5 -26 -10 -11 -12 -17 -4 -12 9 5 12 3 9 -5 -7
-23 -28 -23 -28 0 0 14 -4 19 -12 14 -8 -5 -7 0 2 11 13 17 13 18 0 13 -12 -4
-16 1 -15 22 0 21 3 26 12 18 9 -7 11 -4 8 11 -3 17 1 20 31 19 30 -1 34 -4
34 -30z m-70 -88 c0 -5 -2 -10 -4 -10 -3 0 -8 5 -11 10 -3 6 -1 10 4 10 6 0
11 -4 11 -10z m260 -14 c0 -3 -4 -8 -10 -11 -5 -3 -10 -1 -10 4 0 6 5 11 10
11 6 0 10 -2 10 -4z m130 -50 c0 -2 -8 -10 -17 -17 -16 -13 -17 -12 -4 4 13
16 21 21 21 13z m-130 -30 c0 -3 -4 -8 -10 -11 -5 -3 -10 -1 -10 4 0 6 5 11
10 11 6 0 10 -2 10 -4z m-150 -216 c0 -5 -2 -10 -4 -10 -3 0 -8 5 -11 10 -3 6
-1 10 4 10 6 0 11 -4 11 -10z m204 -301 c-3 -5 -10 -7 -15 -3 -5 3 -7 10 -3
15 3 5 10 7 15 3 5 -3 7 -10 3 -15z"/>
<path d="M367 869 c7 -7 15 -10 18 -7 3 3 -2 9 -12 12 -14 6 -15 5 -6 -5z"/>
<path d="M320 1030 c-9 -6 -10 -10 -3 -10 6 0 15 5 18 10 8 12 4 12 -15 0z"/>
<path d="M420 1032 c0 -5 7 -9 15 -9 8 0 12 4 9 9 -3 4 -9 8 -15 8 -5 0 -9 -4
-9 -8z"/>
<path d="M750 1030 c0 -5 5 -10 10 -10 6 0 10 5 10 10 0 6 -4 10 -10 10 -5 0
-10 -4 -10 -10z"/>
<path d="M790 1030 c0 -5 5 -10 11 -10 5 0 7 5 4 10 -3 6 -8 10 -11 10 -2 0
-4 -4 -4 -10z"/>
<path d="M600 870 c-9 -6 -10 -10 -3 -10 6 0 15 5 18 10 8 12 4 12 -15 0z"/>
<path d="M351 656 c-9 -11 -9 -16 1 -22 7 -4 10 -4 6 1 -4 4 -3 14 3 22 6 7 9
13 6 13 -2 0 -10 -6 -16 -14z"/>
<path d="M343 605 c0 -7 6 -11 14 -8 7 3 13 6 13 8 0 2 -6 5 -13 8 -8 3 -14
-1 -14 -8z"/>
<path d="M456 578 c3 -5 10 -6 15 -3 13 9 11 12 -6 12 -8 0 -12 -4 -9 -9z"/>
<path d="M730 466 c0 -2 7 -9 15 -16 13 -11 14 -10 9 4 -5 14 -24 23 -24 12z"/>
<path d="M530 200 c-12 -7 -10 -9 7 -7 12 0 19 5 17 9 -6 10 -6 10 -24 -2z"/>
</g>
</svg>
