<svg width="110" height="84" viewBox="0 0 110 84" fill="none" xmlns="http://www.w3.org/2000/svg">
<path d="M94.9515 3.66979C95.5373 3.084 95.5373 2.13425 94.9515 1.54847C94.3657 0.962682 93.416 0.96268 92.8302 1.54847L94.9515 3.66979ZM17.1698 81.4515L94.9515 3.66979L92.8302 1.54847L15.0485 79.3302L17.1698 81.4515Z" fill="white"/>
<path d="M51.8595 41.9809C52.4453 42.5667 53.3951 42.5667 53.9809 41.9809C54.5666 41.3951 54.5666 40.4453 53.9809 39.8596L51.8595 41.9809ZM12.8595 2.98087L51.8595 41.9809L53.9809 39.8596L14.9809 0.859552L12.8595 2.98087Z" fill="white"/>
<path d="M92.9393 83.0607C93.5251 83.6464 94.4749 83.6465 95.0607 83.0607C95.6465 82.4749 95.6464 81.5251 95.0607 80.9393L92.9393 83.0607ZM53.9393 44.0607L92.9393 83.0607L95.0607 80.9393L56.0607 41.9393L53.9393 44.0607Z" fill="white"/>
</svg>
