<svg width="398" height="512" viewBox="0 0 398 512" fill="none" xmlns="http://www.w3.org/2000/svg">
<path fill-rule="evenodd" clip-rule="evenodd" d="M126.455 2.455L124 4.909V67.455V130H100.649C86.138 130 76.095 130.42 74.119 131.108C70.164 132.487 68 136.498 68 142.45V147H60H52V141.174C52 136.201 51.622 134.994 49.415 132.924C46.936 130.599 46.272 130.501 33.165 130.532C20.701 130.561 19.074 130.779 14.657 133.006C5.723 137.51 0.725004 145.382 0.693004 155C0.671004 161.649 3.382 168.229 7.988 172.704C13.87 178.419 17.225 179.466 30.849 179.834C44.633 180.206 47.172 179.828 50.025 176.975C51.513 175.487 52 173.643 52 169.5V164H59.876H67.752L68.222 169.669C68.604 174.267 69.205 175.78 71.402 177.669C74.002 179.906 74.776 180 90.556 180H107V188.421V196.841L103.75 197.529C92.553 199.899 78.325 211.783 73.001 223.212C68.116 233.702 67.884 237.982 68.204 312.048L68.5 380.5L71.376 387.5C77.399 402.158 88.242 412.27 102.5 416.523L106.5 417.716L107.028 436.608C107.613 457.57 108.045 459.199 114.531 464.893C116.529 466.647 119.477 468.345 121.082 468.666L124 469.25V488.17C124 506.926 124.021 507.112 126.455 509.545C129.633 512.723 134.027 512.74 137.694 509.588L140.5 507.177L140.827 488.177L141.153 469.178L143.766 468.523C147.653 467.547 151.57 464.428 154.179 460.232C156.343 456.753 156.534 455.188 157 437.108L157.5 417.716L161.5 416.511C173.333 412.945 184.674 403.831 190.226 393.425C196.02 382.568 196.001 382.849 195.988 307.04C195.976 233.487 195.963 233.261 191.244 222.995C186.145 211.902 174.699 201.923 163.081 198.443L157 196.621V188.311V180H274.444H391.888L394.694 177.588L397.5 175.176L397.838 157.854C398.04 147.515 397.75 139.114 397.118 137.016C395.427 131.397 393.189 130.585 378.25 130.171L365 129.804V89.402V49H378.826C392.395 49 392.696 48.952 395.076 46.419C397.469 43.872 397.5 43.591 397.5 24.5C397.5 5.409 397.469 5.128 395.076 2.581L392.651 0H260.78H128.909L126.455 2.455ZM381 24.5V32H261H141V24.5V17H261H381V24.5ZM156 89.5V130H148.5H141V89.5V49H148.5H156V89.5ZM252 89.5V130H244H236V100.434C236 83.419 235.592 70.106 235.038 69.071C234.509 68.083 232.709 66.708 231.038 66.016C227.482 64.543 222.592 66.026 220.962 69.071C220.408 70.106 220 83.419 220 100.434V130H196.5H173V89.5V49H212.5H252V89.5ZM348 89.5V130H340H332V100.189C332 71.624 331.915 70.286 329.972 68.201C325.586 63.492 318.227 65.041 316.108 71.119C315.4 73.151 315 84.345 315 102.149V130H292H269V89.5V49H308.5H348V89.5ZM35 155V163H28.934C21.738 163 19.69 162.081 18.047 158.113C17.059 155.728 17.081 154.603 18.16 152.354C19.948 148.624 23.403 147.033 29.75 147.015L35 147V155ZM381 155V163H233H85V155V147H233H381V155ZM140 188V196H132H124V188V180H132H140V188ZM159.653 215.143C167.296 218.003 174.005 224.724 176.876 232.399C179.028 238.151 179.038 238.528 178.77 308.84L178.5 379.5L176.166 384C172.864 390.367 166.553 396.505 160.599 399.141C156.032 401.163 153.518 401.442 136.5 401.813C107.752 402.441 99.627 400.171 91.292 389.184C84.828 380.663 84.904 381.72 85.217 304.881L85.5 235.5L87.849 230.73C91.135 224.057 98.005 217.523 104.264 215.117C108.927 213.325 111.933 213.099 131.712 213.052C152.046 213.004 154.41 213.181 159.653 215.143ZM105.5 236.208C104.4 236.839 102.952 238.062 102.282 238.927C100.714 240.951 100.714 246.045 102.282 248.087C105.034 251.672 107.526 252 131.984 252C160.737 252 163 251.38 163 243.5C163 235.603 160.757 234.994 131.8 235.03C115.405 235.051 106.849 235.434 105.5 236.208ZM103.636 269.636C100.12 273.153 100.097 277.802 103.578 281.076C106.132 283.477 106.379 283.503 129.328 283.809C142.073 283.979 153.964 283.846 155.754 283.513C162.762 282.21 165.441 274.35 160.545 269.455L158.091 267H132.182H106.273L103.636 269.636ZM103.455 301.455C100.276 304.633 100.26 309.028 103.413 312.694L105.826 315.5H131.832H157.837L160.419 313.076C163.86 309.844 163.914 304.823 160.545 301.455L158.091 299H132H105.909L103.455 301.455ZM103.455 333.455C100.276 336.633 100.26 341.028 103.413 344.694L105.827 347.5H131.833H157.839L160.419 345.076C164.044 341.67 164.018 335.946 160.365 333.073C157.854 331.097 156.519 331 131.82 331H105.909L103.455 333.455ZM103.455 365.455C101.907 367.002 101 369.052 101 371C101 372.948 101.907 374.998 103.455 376.545L105.909 379H132.28C158.553 379 158.66 378.991 160.826 376.686C163.805 373.514 163.739 368.043 160.686 365.174C158.431 363.056 157.696 363 132.14 363H105.909L103.455 365.455ZM139.774 435.75L139.5 452.5L133.163 452.8C129.351 452.98 126.262 452.633 125.413 451.928C124.304 451.008 124 447.335 124 434.878V419H132.024H140.048L139.774 435.75Z" fill="#EE860C"/>
</svg>
