<svg version="1.0" xmlns="http://www.w3.org/2000/svg"
 width="512pt" height="512pt" viewBox="0 0 512 512"
 preserveAspectRatio="xMidYMid meet">

<g transform="translate(0.000000,512.000000) scale(0.100000,-0.100000)"
fill="#fb9902" stroke="none">
<path d="M880 5071 c-19 -10 -48 -37 -65 -60 l-30 -43 -3 -459 -3 -459 -117 0
c-221 -1 -353 -49 -483 -179 -78 -78 -118 -143 -155 -251 -28 -83 -26 -253 4
-340 64 -185 194 -317 377 -383 70 -26 98 -30 228 -35 l147 -5 0 -328 0 -328
23 -27 c31 -35 82 -38 109 -5 17 22 18 58 18 722 l0 699 38 0 c20 0 54 4 75 9
l37 9 0 -844 0 -844 -26 10 c-35 14 -496 13 -570 -1 -75 -14 -206 -75 -264
-123 -138 -116 -219 -286 -220 -462 0 -79 31 -200 72 -277 46 -86 155 -194
243 -239 110 -56 164 -69 323 -75 l142 -6 0 -121 c0 -142 10 -183 53 -233 42
-48 82 -63 165 -63 l70 0 4 -87 c5 -101 21 -139 75 -180 l36 -28 1886 -3
c1037 -1 1900 0 1918 3 43 8 92 50 114 100 18 38 19 128 19 2274 l0 2235 -21
44 c-13 26 -38 54 -62 70 l-40 27 -229 3 -228 3 0 86 c0 73 -4 93 -24 127 -13
23 -42 51 -64 64 l-40 22 -1749 0 c-1683 0 -1750 -1 -1783 -19z m3505 -2361
l0 -2225 -1714 -3 c-1258 -1 -1717 1 -1727 9 -12 9 -14 101 -14 499 l0 488 58
6 c31 4 65 9 75 12 16 5 17 -10 17 -225 0 -147 4 -239 11 -254 13 -29 48 -47
92 -47 50 0 129 -43 174 -93 39 -45 54 -83 68 -170 3 -21 15 -47 26 -58 19
-19 44 -19 1208 -19 1187 0 1188 0 1215 21 17 13 26 30 26 48 0 46 28 125 59
168 35 49 136 103 191 103 23 0 48 8 64 21 l26 20 0 1699 0 1699 -26 20 c-16
13 -41 21 -64 21 -55 0 -156 54 -191 103 -31 43 -59 123 -59 169 0 15 -9 37
-20 48 -20 20 -33 20 -1218 20 -1369 0 -1226 11 -1242 -96 -11 -80 -22 -106
-67 -155 -43 -47 -122 -89 -170 -89 -44 0 -79 -18 -92 -47 -7 -14 -11 -92 -11
-198 l0 -174 -32 10 c-18 5 -52 9 -75 9 l-43 0 0 429 c0 236 3 436 6 445 6 15
164 16 1728 14 l1721 -3 0 -2225z m-614 1885 c16 -61 76 -153 131 -198 47 -38
142 -87 171 -87 16 0 17 -83 17 -1600 0 -1517 -1 -1600 -17 -1600 -29 0 -124
-49 -171 -87 -55 -45 -116 -137 -131 -198 l-11 -45 -1096 2 -1095 3 -18 53
c-40 118 -135 214 -255 258 l-61 22 0 1592 0 1592 61 22 c34 13 85 39 112 60
55 40 124 133 142 193 6 21 13 44 15 51 4 9 232 12 1100 12 l1095 0 11 -45z
m909 -1578 l5 -1619 28 -24 c34 -29 56 -30 91 -3 l26 20 0 1625 0 1624 59 0
c37 0 63 -5 70 -14 8 -10 10 -599 9 -2227 l-3 -2214 -67 -3 -68 -3 0 465 0
465 -26 20 c-40 32 -84 26 -107 -13 -9 -15 -13 -144 -17 -476 l-5 -455 -1719
-3 c-1369 -2 -1721 0 -1728 10 -4 7 -8 41 -8 76 l0 62 1588 0 c1522 0 1589 1
1627 19 46 21 79 54 94 94 8 20 11 661 11 2113 l0 2085 68 -3 67 -3 5 -1618z
m-3650 870 c52 -26 52 -105 0 -132 -23 -12 -73 -15 -258 -15 -264 0 -293 -6
-371 -76 -151 -136 -113 -381 74 -470 44 -21 64 -24 178 -24 l127 0 0 -80 0
-80 -104 0 c-127 0 -193 12 -271 49 -192 90 -292 302 -240 506 40 155 171 283
330 321 71 17 501 18 535 1z m-250 -432 l0 -135 -121 0 -121 0 -39 39 c-34 34
-39 44 -39 85 0 58 21 101 63 126 27 17 51 20 145 20 l112 0 0 -135z m265
-1690 c26 -25 32 -63 15 -95 -18 -34 -66 -40 -304 -40 -222 0 -233 -1 -281
-24 -179 -85 -223 -318 -87 -459 68 -70 99 -81 255 -85 l137 -4 0 -79 0 -79
-102 0 c-189 0 -297 39 -398 140 -137 138 -168 338 -79 512 30 58 119 150 178
181 89 49 136 56 399 56 l243 1 24 -25z m-265 -420 l0 -135 -110 0 c-121 0
-152 9 -189 56 -26 33 -29 118 -5 153 35 50 70 61 192 61 l112 0 0 -135z"/>
<path d="M1947 4377 c-51 -16 -103 -60 -127 -107 -27 -52 -29 -253 -4 -306 22
-46 85 -100 131 -113 58 -16 1453 -15 1507 1 52 16 121 84 136 136 8 24 11 82
9 150 -4 104 -6 113 -35 154 -16 24 -50 54 -74 68 l-45 25 -451 0 c-430 0
-453 -1 -473 -19 -26 -24 -29 -87 -4 -107 13 -11 104 -15 460 -19 519 -6 473
6 473 -127 0 -136 81 -123 -748 -123 -624 0 -710 2 -730 16 -20 14 -22 23 -22
109 0 124 1 125 171 125 137 0 150 5 164 62 6 22 1 33 -23 58 l-30 30 -124 -1
c-68 0 -140 -6 -161 -12z"/>
<path d="M2625 3555 c-167 -37 -309 -147 -385 -297 -49 -98 -63 -168 -58 -287
5 -111 31 -177 99 -246 21 -23 39 -50 39 -60 0 -25 35 -84 65 -110 15 -13 25
-35 28 -65 4 -34 14 -52 37 -72 l30 -28 261 0 261 0 33 33 c22 22 35 46 40 77
5 28 16 51 31 63 29 22 54 68 54 96 0 11 15 34 34 51 65 60 116 189 116 293 0
72 -28 179 -66 256 -110 222 -376 350 -619 296z m250 -160 c73 -25 151 -81
195 -139 107 -142 118 -339 24 -427 -20 -19 -47 -44 -60 -56 -18 -16 -24 -33
-24 -63 0 -33 -3 -40 -20 -40 -35 0 -60 -35 -60 -85 l0 -45 -185 0 -185 0 0
39 c0 45 -29 88 -63 93 -18 2 -22 10 -23 41 -1 34 -9 46 -61 95 -74 70 -87
104 -81 221 5 107 35 178 107 254 115 122 281 164 436 112z"/>
<path d="M2493 3136 c-25 -22 -28 -30 -28 -91 0 -61 3 -69 28 -91 15 -13 37
-24 47 -24 10 0 32 11 47 24 25 22 28 30 28 91 0 61 -3 69 -28 91 -15 13 -37
24 -47 24 -10 0 -32 -11 -47 -24z"/>
<path d="M2895 3135 c-21 -20 -25 -34 -25 -87 0 -96 43 -137 109 -104 36 19
41 33 41 107 0 50 -4 64 -25 84 -13 14 -36 25 -50 25 -14 0 -37 -11 -50 -25z"/>
<path d="M2690 2840 c-45 -45 -11 -120 53 -120 42 0 70 29 70 72 0 60 -80 91
-123 48z"/>
<path d="M2347 2232 c-10 -11 -17 -40 -19 -77 l-3 -60 -63 -5 c-77 -6 -108
-33 -98 -85 10 -51 37 -65 130 -65 l81 0 128 -128 c70 -70 127 -132 127 -137
0 -6 -57 -68 -128 -138 l-127 -127 -72 0 c-82 0 -116 -12 -132 -47 -15 -34
-14 -47 9 -76 18 -22 30 -26 83 -29 l62 -3 3 -61 c3 -71 23 -97 73 -97 53 0
72 30 77 125 l4 83 126 128 c70 70 131 127 137 127 6 0 68 -57 138 -128 l127
-127 0 -77 c0 -93 5 -107 43 -123 65 -27 107 14 107 105 l0 50 58 0 c48 0 62
4 80 23 27 29 28 67 3 98 -17 21 -29 24 -103 27 l-83 4 -133 131 -132 132 132
132 133 133 78 0 c69 0 81 3 102 25 32 31 33 74 2 103 -18 17 -36 22 -80 22
l-57 0 0 54 c0 69 -26 106 -76 106 -58 0 -74 -26 -74 -123 l0 -82 -133 -133
-132 -132 -132 132 -131 133 -4 84 c-4 73 -8 87 -28 103 -28 23 -82 23 -103 0z"/>
</g>
</svg>
