<svg width="512" height="512" viewBox="0 0 512 512" fill="none" xmlns="http://www.w3.org/2000/svg">
<path fill-rule="evenodd" clip-rule="evenodd" d="M31.767 31.767C3.751 59.784 0 63.901 0 66.633C0 71.556 3.362 75 8.168 75C11.976 75 12.885 74.319 25.131 62.296L38.069 49.591L43.772 55.294L49.474 60.996L37.345 73.248C30.675 79.987 24.707 86.503 24.084 87.729C21.635 92.551 26.3 99 32.236 99C34.694 99 37.464 96.777 48.393 86.031L61.585 73.063L67.275 78.753L72.965 84.444L59.983 97.555C49.247 108.397 47 111.175 47 113.61C47 119.608 52.518 123.876 57.75 121.925C59.263 121.361 66.013 115.416 72.752 108.713L85.004 96.526L90.722 102.244L96.44 107.961L83.72 120.817C76.724 127.887 70.948 134.533 70.885 135.586C70.51 141.822 73.854 146 79.223 146C81.872 146 84.285 144.069 95.456 133.007L108.577 120.014L114.282 125.78L119.987 131.545L108.424 143.023C93.181 158.152 91.649 161.155 96.37 166.644C98.155 168.72 99.646 169.4 102.406 169.4C105.769 169.4 107.139 168.334 119.037 156.463L132.004 143.525L137.706 149.228L143.409 154.931L130.704 167.869C118.791 180.002 118 181.053 118 184.73C118 189.702 121.182 193 125.979 193C128.926 193 130.846 191.498 141.961 180.5C148.91 173.625 155.028 168 155.558 168C156.803 168 190 201.218 190 202.463C190 202.982 184.375 209.09 177.5 216.039C163.849 229.835 162.814 231.952 167.073 237.365C168.698 239.432 170.013 240 173.168 240C176.976 240 177.885 239.319 190.129 227.297L203.067 214.594L216.297 227.797C227.889 239.365 229.933 241 232.809 241C234.96 241 236.937 240.154 238.545 238.545C240.154 236.937 241 234.96 241 232.809C241 229.933 239.365 227.889 227.797 216.297L214.594 203.067L227.297 190.129C239.319 177.885 240 176.976 240 173.168C240 170.013 239.432 168.698 237.365 167.073C231.952 162.814 229.835 163.849 216.039 177.5C209.09 184.375 202.961 190 202.419 190C201.876 190 198.99 187.528 196.007 184.507L190.582 179.014L203.791 165.674C218.542 150.777 219.309 149.155 214.077 143.923C208.845 138.691 207.223 139.458 192.326 154.209L178.986 167.418L173.493 161.993C170.472 159.01 168 156.124 168 155.581C168 155.039 173.625 148.91 180.5 141.961C191.699 130.643 193 128.965 193 125.838C193 121.129 189.642 118 184.59 118C181.092 118 179.838 118.953 167.869 130.704L154.931 143.409L149.228 137.706L143.525 132.004L156.463 119.037C168.334 107.139 169.4 105.769 169.4 102.406C169.4 99.646 168.72 98.155 166.644 96.37C161.155 91.649 158.152 93.181 143.023 108.424L131.545 119.987L125.78 114.282L120.014 108.577L133.007 95.456C144.069 84.285 146 81.872 146 79.223C146 73.854 141.822 70.51 135.586 70.885C134.533 70.948 127.887 76.724 120.817 83.72L107.961 96.44L102.244 90.722L96.526 85.004L108.713 72.752C115.416 66.013 121.361 59.263 121.925 57.75C123.876 52.518 119.608 47 113.61 47C111.175 47 108.397 49.247 97.555 59.983L84.444 72.965L78.753 67.275L73.063 61.585L86.031 48.393C96.777 37.464 99 34.694 99 32.236C99 26.3 92.551 21.635 87.729 24.084C86.503 24.707 79.987 30.675 73.248 37.345L60.996 49.474L55.294 43.772L49.591 38.069L62.296 25.131C74.319 12.885 75 11.976 75 8.168C75 3.362 71.556 0 66.633 0C63.901 0 59.784 3.751 31.767 31.767ZM466 7.716C462.576 8.945 460 12.388 460 15.734C460 18.441 461.039 20.218 465.18 24.596L470.359 30.073L464.964 35.537C461.996 38.541 459.146 41 458.631 41C458.115 41 455.314 38.75 452.406 36C446.133 30.067 443.227 29.619 438.923 33.923C434.619 38.227 435.067 41.133 441 47.406C443.75 50.314 446 53.115 446 53.631C446 54.146 443.525 57.013 440.5 60L435 65.432L429.719 60.216C425.351 55.903 423.824 55 420.893 55C416.202 55 413 58.34 413 63.234C413 66.159 413.934 67.86 417.949 72.254L422.898 77.669L417.668 82.834C414.791 85.676 412.017 88 411.503 88C410.989 88 408.523 85.985 406.023 83.523C399.881 77.473 396.106 76.74 392.04 80.806C387.437 85.409 387.905 88.641 394.167 95.492L399.333 101.145L393.715 106.763L388.097 112.382L382.608 107.191C376.253 101.18 371.894 100.283 368.323 104.25C363.868 109.199 364.642 112.977 371.555 120.033L375.997 124.566L370.21 130.292L364.424 136.018L360.462 131.927C353.368 124.601 349.282 123.684 344.25 128.289C340.289 131.914 341.18 136.253 347.191 142.608L352.382 148.097L346.763 153.715L341.145 159.333L335.492 154.167C328.978 148.214 324.845 147.365 321.289 151.25C316.684 156.282 317.601 160.368 324.927 167.462L329.018 171.424L323.292 177.21L317.566 182.997L313.033 178.555C305.977 171.642 302.199 170.868 297.25 175.323C293.282 178.895 294.18 183.253 300.195 189.613L305.391 195.106L187.447 313.053C122.578 377.924 69.024 431 68.439 431C67.854 431 65.592 430.138 63.411 429.084C44.783 420.084 20.169 429.183 11.457 448.29C-1.468 476.635 21.688 508.1 52.404 503.932C78.064 500.45 94.004 471.539 82.916 448.589C81.862 446.408 81 444.146 81 443.561C81 442.976 134.076 389.422 198.947 324.553L316.894 206.609L322.387 211.805C328.747 217.82 333.105 218.718 336.677 214.75C341.132 209.801 340.358 206.023 333.445 198.967L329.003 194.434L334.79 188.708L340.576 182.982L344.538 187.073C351.632 194.399 355.718 195.316 360.75 190.711C364.635 187.155 363.786 183.022 357.833 176.508L352.667 170.855L358.285 165.237L363.903 159.618L369.392 164.809C375.747 170.82 380.086 171.711 383.711 167.75C388.316 162.718 387.399 158.632 380.073 151.538L375.982 147.576L381.708 141.79L387.434 136.003L391.967 140.445C399.023 147.358 402.801 148.132 407.75 143.677C411.717 140.106 410.82 135.747 404.809 129.392L399.618 123.903L405.237 118.285L410.855 112.667L416.508 117.833C423.359 124.095 426.591 124.563 431.194 119.96C435.26 115.894 434.527 112.119 428.477 105.977C426.015 103.477 424 100.981 424 100.431C424 99.882 426.383 97.078 429.295 94.202L434.59 88.973L439.792 93.986C444.19 98.226 445.585 99 448.822 99C453.723 99 457 95.781 457 90.967C457 88.205 456.016 86.567 451.784 82.281L446.568 77L452 71.5C454.987 68.475 457.854 66 458.369 66C458.885 66 461.686 68.25 464.594 71C470.867 76.933 473.773 77.381 478.077 73.077C482.381 68.773 481.933 65.867 476 59.594C473.25 56.686 471 53.885 471 53.369C471 52.854 473.459 50.004 476.463 47.036L481.927 41.641L487.404 46.82C493.747 52.819 498.108 53.715 501.677 49.75C506.959 43.882 505.794 41.496 489.687 25.186C473.256 8.548 470.122 6.237 466 7.716ZM146.652 199.926C140.026 206.872 139.491 209.645 143.923 214.077C148.355 218.509 151.128 217.974 158.074 211.348C163.034 206.617 164 205.142 164 202.302C164 200.033 163.187 198.096 161.545 196.455C159.904 194.813 157.967 194 155.698 194C152.858 194 151.383 194.966 146.652 199.926ZM273.455 273.455C271.842 275.067 271 277.039 271 279.202C271 282.234 277.689 289.185 355.171 366.671L439.342 450.846L436.703 456.728C429.866 471.962 433.407 489.475 445.67 501.073C448.599 503.842 453.583 507.321 456.747 508.804C461.793 511.169 463.729 511.5 472.5 511.5C481.597 511.5 483.087 511.222 489.003 508.418C497.333 504.47 504.47 497.333 508.418 489.003C511.222 483.087 511.5 481.597 511.5 472.5C511.5 463.729 511.169 461.793 508.804 456.747C499.475 436.841 476.298 427.92 456.728 436.703L450.846 439.342L366.671 355.171C289.185 277.689 282.234 271 279.202 271C277.039 271 275.067 271.842 273.455 273.455ZM51.835 443.058C60.54 444.925 67.071 451.441 68.931 460.116C72.436 476.457 58.316 490.406 41.845 486.873C37.617 485.967 35.635 484.766 31.435 480.565C27.234 476.365 26.033 474.383 25.127 470.155C22.534 458.065 29.355 446.487 40.904 443.374C46.743 441.8 46.061 441.82 51.835 443.058ZM482.649 452.318C490.881 456.576 495.517 465.171 494.815 474.875C494.011 485.989 485.989 494.011 474.875 494.815C458.443 496.004 446.686 481.908 451.065 466.268C452.651 460.603 459.679 453.031 465 451.254C469.462 449.763 478.797 450.326 482.649 452.318Z" fill="#fb9902"/>
</svg>
