<svg width="474" height="512" viewBox="0 0 474 512" fill="none" xmlns="http://www.w3.org/2000/svg">
<path fill-rule="evenodd" clip-rule="evenodd" d="M219.23 2.01502C208.246 4.89302 196.652 11.388 188.245 19.373C178.87 28.277 167.19 45.779 156.794 66.5C152.379 75.3 148.257 82.43 147.634 82.345C147.01 82.259 141.1 80.393 134.5 78.198C119.17 73.1 105.625 70.77 90.443 70.619C78.896 70.505 78.136 70.627 72.486 73.51C65.353 77.15 60.67 82.889 58.364 90.816C57.005 95.49 56.822 99.165 57.333 111.5C57.893 125.007 59.151 136.443 60.605 141.25C61.079 142.815 60.287 143 53.105 143C38.28 143 27.99 149.173 21.787 161.79L18.5 168.474L18.605 185.487C18.761 210.705 21.447 228.345 28.59 251.047L32.222 262.594L27.521 269.861C24.935 273.858 20.42 282.162 17.486 288.314C0.424007 324.093 -4.05099 360.777 4.51601 394.637C7.61801 406.899 11.397 414.301 18.017 421.083C24.896 428.132 32.523 432.031 46 435.388C72.996 442.112 104.406 440.15 133.452 429.926C139.475 427.805 144.473 426.167 144.559 426.285C144.644 426.403 147.299 431.771 150.459 438.212C153.619 444.654 156.764 450.389 157.448 450.956C162.209 454.908 170.01 451.624 169.988 445.677C169.981 443.839 167.663 437.898 164.488 431.582C161.47 425.577 159.005 420.177 159.012 419.582C159.018 418.987 161.627 417.07 164.809 415.323C167.991 413.576 174.751 409.162 179.831 405.514L189.067 398.882L196.784 400.428C207.755 402.627 221.025 403.982 231.68 403.992L240.86 404L237.904 415.031C236.279 421.097 233.386 430.435 231.475 435.781C227.345 447.333 227.225 449.316 230.455 452.545C233.578 455.668 237.95 455.755 240.739 452.75C243.646 449.619 252.758 422.337 256.391 405.89C256.921 403.492 257.503 403.225 263.547 402.605C278.84 401.039 300.254 395.693 315.527 389.629C321.42 387.289 324 386.661 324 387.565C324 388.28 322.684 393.958 321.075 400.182C312.675 432.685 295.13 460.862 271.411 479.943C256.44 491.986 242.78 497.966 233.679 496.461C222.991 494.692 208.657 486.159 195.303 473.613C191.011 469.581 186.51 465.97 185.3 465.59C182.265 464.634 177.175 467.455 176.406 470.518C175.281 475 176.887 477.722 185.246 485.502C194.901 494.488 206.343 502.354 217.525 507.692C225.266 511.388 225.822 511.5 236.5 511.5C249.176 511.5 252.798 510.428 265.556 502.903C290.711 488.067 313.307 461.927 325.985 433C327.311 429.975 328.644 427.188 328.948 426.807C329.252 426.426 334.684 427.881 341.02 430.042C370.304 440.028 400.903 441.978 427.549 435.557C440.916 432.336 449.037 428.201 455.983 421.08C462.8 414.093 466.273 407.318 469.439 394.838C476.289 367.836 474.771 338.221 465.03 308.829C461.443 298.005 452.031 278.353 445.978 269.046L441.78 262.592L444.866 253.046C452.152 230.504 455.184 211.15 455.37 185.988L455.5 168.477L452.213 161.791C446.01 149.173 435.722 143 420.895 143C413.713 143 412.921 142.815 413.395 141.25C416.199 131.981 417.937 100.073 416.062 92.26C413.404 81.178 405.433 73.359 394.24 70.854C382.923 68.322 353.808 72.712 334.013 79.936C329.389 81.624 325.326 82.666 324.985 82.252C324.644 81.839 322.858 78.125 321.015 74C311.753 53.268 296.444 29.525 285.852 19.465C277.2 11.248 265.732 4.87302 254.377 1.96802C244.237 -0.624984 229.229 -0.604984 219.23 2.01502ZM247.144 16.433C264.211 19.477 276.001 28.471 289.152 48.478C296.249 59.274 309 83.385 310.318 88.5C310.741 90.14 309.032 91.67 300.826 97C284.14 107.837 268.76 122.963 256.988 140.115C250.919 148.958 240.874 168.35 238.831 175.17C238.2 177.276 237.376 179 237 179C236.624 179 235.8 177.276 235.169 175.17C233.166 168.485 223.497 149.825 217.203 140.5C205.437 123.067 190.246 108.099 172.833 96.783C164.905 91.63 163.261 90.14 163.692 88.5C164.868 84.024 176.383 61.798 182.862 51.5C194.237 33.419 203.462 24.517 216.177 19.35C226.333 15.223 235.513 14.359 247.144 16.433ZM113.5 88.482C170.262 100.264 213.572 143.3 226.23 200.5C227.822 207.694 228.317 214.515 228.696 234.5L229.169 259.5L224.07 249.561C202.042 206.626 165.826 173.715 121.105 155.992C110.102 151.632 91.71 146.607 82.574 145.466L77.096 144.782L76.041 139.641C72.702 123.38 71.86 97.106 74.513 91.976C77.232 86.718 80.084 85.877 93.5 86.376C100.1 86.621 109.1 87.569 113.5 88.482ZM395.033 87.517C399.988 90.079 401.004 93.447 400.969 107.2C400.938 119.479 399.974 129.83 397.936 139.75C397.035 144.14 396.501 145.002 394.679 145.013C387.271 145.058 363.565 151.435 360.9 154.1C356.738 158.262 360.147 167.009 365.924 166.992C367.341 166.988 371.425 166.095 375 165.007C385.058 161.946 404.356 159.052 416.5 158.782C429.07 158.502 431.987 159.497 436.698 165.667C439.324 169.106 439.521 170.049 439.836 180.685C441.895 250.131 406.233 317.925 347.5 356.217C320.938 373.535 284.554 385.892 254.789 387.706L244.813 388.314L245.306 350.907C245.828 311.327 246.152 308.037 251.449 288.595C263.274 245.189 293.535 205.728 332.245 183.236C343.022 176.974 344.573 173.42 338.975 167.821C335.18 164.026 333.486 164.364 322.239 171.157C292.134 189.342 266.855 216.646 250.386 248.767L245 259.272V239.36C245 228.408 245.465 215.738 246.034 211.203C250.235 177.699 268.151 144.026 293.629 121.751C314.249 103.722 338.64 92.176 366 87.49C376.875 85.627 391.405 85.641 395.033 87.517ZM74.5 160.106C141.568 168.622 199.755 217.061 220.322 281.5C227.679 304.55 229 315.928 229 356.224V388L223.75 387.982C204.164 387.913 173.323 379.953 150.5 369.075C78.522 334.769 34 264.018 34 183.941C34 170.928 34.956 167.269 39.462 163.036C44.716 158.1 53.15 157.395 74.5 160.106ZM45.029 289.75C54.774 307.994 69.922 327.923 85.417 342.885C89.623 346.946 92.937 350.378 92.782 350.511C91.501 351.608 72.758 361.661 65.905 364.927C59.837 367.819 56.962 369.789 56.124 371.627C53.861 376.594 57.298 382 62.719 382C66.203 382 85.704 372.804 99.247 364.775L105.995 360.775L116.017 367.511C127.817 375.443 146.764 385.21 159.74 390.052C164.823 391.948 168.985 393.752 168.99 394.06C168.996 394.368 164.37 397.413 158.71 400.826C121.762 423.111 78.355 429.626 42.294 418.298C35.555 416.181 28.277 410.633 24.827 404.982C23.322 402.517 21.177 396.9 20.06 392.5C11.369 358.251 16.842 320.617 35.365 287.25C37.578 283.262 39.487 280 39.606 280C39.724 280 42.165 284.387 45.029 289.75ZM443.003 296.304C449.088 309.066 452.681 319.733 455.701 334C457.921 344.487 458.191 374.152 456.152 383.5C450.308 410.289 444.548 416.205 419 421.652C406.276 424.365 381.033 424.102 367 421.11C355.672 418.694 339.09 413.518 336.416 411.562C334.888 410.445 334.924 409.705 336.887 401.728C338.055 396.984 339.539 389.706 340.184 385.555L341.357 378.007L352.298 371.254C358.315 367.539 368.105 360.585 374.053 355.799L384.868 347.099L387.315 351.299C388.66 353.61 392.564 361.125 395.989 368C399.414 374.875 402.912 381.288 403.763 382.25C406.247 385.06 412.405 384.572 414.927 381.365C416.067 379.916 417 377.948 417 376.992C417 374.987 406.17 352.785 400.209 342.572L396.166 335.643L401.944 329.072C412.218 317.388 422.617 302.171 430.511 287.271C435.07 278.665 434.344 278.14 443.003 296.304Z" fill="#fb9902"/>
</svg>
