<svg version="1.0" xmlns="http://www.w3.org/2000/svg"
 width="512pt" height="512pt" viewBox="0 0 512 512"
 preserveAspectRatio="xMidYMid meet">

<g transform="translate(0.000000,512.000000) scale(0.100000,-0.100000)"
fill="#fb9902" stroke="none">
<path d="M1380 5111 c-101 -33 -180 -129 -180 -218 0 -17 -8 -19 -72 -19 -87
1 -137 -22 -190 -84 -42 -48 -58 -98 -58 -177 l0 -59 -72 0 c-56 0 -83 -5
-114 -21 -54 -29 -109 -93 -123 -146 -9 -31 -11 -225 -9 -722 l3 -680 26 -77
c44 -128 92 -204 195 -305 l94 -93 0 -655 0 -655 -27 0 c-74 -1 -170 -78 -197
-158 -19 -55 -22 -261 -5 -313 6 -19 24 -51 40 -71 l29 -37 0 -283 c0 -311 2
-320 59 -333 33 -7 85 15 95 40 3 9 6 129 6 266 l0 249 400 0 400 0 0 -255 0
-256 25 -24 c26 -27 54 -31 88 -13 46 24 46 29 47 329 0 255 2 288 17 300 9 8
27 37 39 64 21 44 24 65 24 171 0 142 -14 195 -67 249 -41 42 -104 74 -145 75
l-28 0 0 668 1 667 46 35 c25 19 71 64 102 100 52 60 563 803 621 902 21 36
25 56 25 118 0 64 -4 82 -28 123 -34 58 -86 94 -158 109 -82 17 -151 -6 -229
-78 l-60 -56 0 442 c0 307 -4 455 -12 481 -15 51 -69 114 -122 142 -31 16 -58
21 -113 21 -65 0 -73 2 -73 19 0 70 -61 162 -132 198 -45 23 -129 33 -168 20z
m123 -182 c16 -20 17 -62 17 -571 l0 -549 25 -24 c15 -16 36 -25 55 -25 19 0
40 9 55 25 l25 24 0 429 c0 407 1 431 19 453 14 18 29 24 61 24 32 0 47 -6 61
-24 18 -22 19 -48 19 -573 l0 -549 25 -24 c47 -48 72 -38 211 93 69 64 135
120 146 124 53 20 105 -27 94 -84 -4 -19 -95 -163 -207 -328 -111 -162 -238
-349 -282 -415 -87 -128 -167 -220 -232 -265 -26 -18 -70 -33 -125 -44 -151
-31 -285 -102 -385 -206 l-40 -41 -5 112 -5 113 -78 60 c-112 87 -160 153
-211 286 -20 54 -21 71 -24 726 -3 651 -2 672 17 695 27 33 95 33 122 0 18
-21 19 -43 19 -293 l0 -269 25 -24 c15 -16 36 -25 55 -25 19 0 40 9 55 25 l25
24 0 429 c0 407 1 431 19 453 14 18 29 24 61 24 32 0 47 -6 61 -24 18 -22 19
-46 19 -453 l0 -429 25 -24 c15 -16 36 -25 55 -25 19 0 40 9 55 25 l25 24 0
546 c0 367 3 553 11 566 23 43 99 47 132 8z m2 -2496 c-14 -78 -82 -199 -150
-267 -69 -69 -192 -139 -267 -152 -46 -8 -46 -3 -17 84 54 159 198 302 353
352 87 27 89 27 81 -17z m-49 -448 c-52 -105 -141 -192 -249 -245 -45 -21
-101 -42 -124 -46 l-43 -7 0 77 c0 53 4 78 13 80 6 2 44 10 82 20 99 23 220
85 290 149 33 30 62 53 64 51 2 -2 -13 -38 -33 -79z m54 -304 c-23 -91 -99
-181 -184 -216 -19 -8 -38 -15 -41 -15 -3 0 -5 33 -5 73 l0 72 46 25 c26 13
79 54 118 91 68 64 71 66 74 41 2 -14 -2 -46 -8 -71z m-390 -311 l0 -170 -40
0 -40 0 2 163 3 162 35 6 c19 4 36 7 38 8 1 0 2 -75 2 -169z m400 -70 l0 -100
-120 0 -120 0 0 44 c0 43 1 44 38 51 47 9 128 47 167 79 17 14 31 25 33 26 1
0 2 -45 2 -100z m215 -285 c24 -23 25 -31 25 -132 -1 -112 -6 -130 -47 -151
-15 -9 -139 -12 -433 -12 -432 0 -457 2 -474 45 -3 9 -6 64 -6 121 0 98 2 107
25 129 l24 25 431 0 431 0 24 -25z"/>
<path d="M989 3501 c-18 -14 -23 -31 -27 -80 -5 -72 9 -114 44 -130 38 -17 63
-13 89 14 22 21 25 33 25 95 0 62 -3 74 -25 95 -29 30 -73 33 -106 6z"/>
<path d="M1309 3501 c-18 -14 -23 -31 -27 -80 -5 -72 9 -114 44 -130 38 -17
63 -13 89 14 22 21 25 33 25 95 0 62 -3 74 -25 95 -29 30 -73 33 -106 6z"/>
<path d="M1629 3501 c-18 -14 -23 -31 -27 -80 -5 -72 9 -114 44 -130 38 -17
63 -13 89 14 22 21 25 33 25 95 0 62 -3 74 -25 95 -29 30 -73 33 -106 6z"/>
<path d="M999 3187 c-20 -15 -39 -51 -39 -72 0 -9 13 -30 29 -46 l29 -29 347
0 346 0 24 25 c16 15 25 36 25 55 0 19 -9 40 -25 55 l-24 25 -348 0 c-258 -1
-352 -4 -364 -13z"/>
<path d="M1243 2308 c-28 -13 -46 -58 -37 -92 14 -57 86 -74 129 -31 65 64 -8
163 -92 123z"/>
<path d="M3600 5108 c-76 -26 -160 -140 -160 -217 0 -20 -3 -21 -50 -15 -78
10 -136 -11 -195 -70 -32 -32 -55 -66 -63 -92 -9 -30 -12 -166 -12 -484 l0
-442 -60 56 c-78 72 -147 95 -229 78 -112 -24 -179 -100 -188 -216 -7 -82 6
-112 133 -296 55 -80 180 -264 278 -408 200 -296 248 -357 329 -422 l56 -45 1
-707 0 -708 -27 0 c-74 -1 -170 -78 -197 -158 -19 -55 -22 -261 -5 -313 6 -19
24 -51 40 -71 l29 -37 0 -244 c0 -225 2 -247 19 -268 27 -33 95 -33 122 0 17
21 19 42 19 237 l0 214 400 0 400 0 0 -213 c0 -234 4 -250 59 -262 33 -7 85
15 95 40 3 9 6 126 6 260 0 214 2 244 17 256 9 8 27 37 39 64 21 44 24 65 24
171 0 142 -14 195 -67 249 -41 42 -104 74 -145 75 l-28 0 0 697 0 696 77 71
c84 78 160 185 193 274 48 127 50 162 50 855 0 634 -1 653 -21 697 -44 98
-116 144 -226 145 l-73 0 0 65 c-1 105 -48 187 -135 233 -30 16 -58 21 -112
22 -71 0 -73 1 -73 25 -1 35 -36 109 -68 143 -59 62 -172 91 -252 65z m113
-160 c47 -25 46 -13 47 -591 l0 -548 25 -24 c32 -33 78 -33 110 0 l25 24 0
431 0 431 25 24 c26 27 54 31 88 13 47 -24 46 -20 47 -471 l0 -428 25 -24 c15
-16 36 -25 55 -25 19 0 40 9 55 25 l25 24 0 271 0 271 25 24 c26 27 54 31 88
13 47 -25 46 -11 47 -615 l0 -572 -352 -3 c-342 -3 -354 -4 -394 -25 -152 -81
-178 -271 -55 -386 61 -57 97 -67 241 -67 133 0 173 9 225 50 36 29 42 30 137
30 l99 0 -33 -41 c-18 -23 -60 -61 -93 -85 -104 -76 -95 -48 -96 -303 l0 -226
-19 73 c-28 105 -64 167 -150 253 -85 86 -165 131 -272 153 -105 22 -203 104
-311 261 -251 367 -493 726 -508 755 -33 61 -20 107 37 124 35 11 57 -4 188
-126 139 -131 164 -141 211 -93 l25 24 0 551 0 551 25 24 c38 39 102 27 124
-22 7 -16 11 -157 11 -444 l0 -420 25 -24 c32 -33 78 -33 110 0 l25 24 0 551
0 551 25 24 c26 27 54 31 88 13z m246 -1923 c48 -24 55 -77 16 -119 -23 -25
-28 -26 -135 -26 -104 0 -112 1 -135 25 -16 15 -25 36 -25 55 0 33 6 36 34 15
30 -23 74 -18 101 10 14 13 25 31 25 40 0 20 80 21 119 0z m431 -2 c0 -10 -3
-28 -6 -40 -6 -22 -11 -23 -115 -23 -97 0 -109 2 -109 18 0 9 -3 27 -6 40 -6
22 -6 22 115 22 109 0 121 -2 121 -17z m-693 -588 c157 -70 253 -269 213 -443
-32 -138 -154 -266 -282 -297 -27 -7 -28 -6 -28 33 0 37 2 40 45 57 58 22 134
95 165 160 36 73 35 188 -1 265 -33 70 -89 126 -156 157 -51 24 -53 26 -53 64
0 46 2 46 97 4z m-65 -242 c64 -73 62 -170 -6 -232 l-26 -24 0 136 c0 75 4
137 8 137 5 0 16 -8 24 -17z m448 -391 l0 -208 -69 -17 c-197 -51 -356 -225
-404 -442 -3 -11 -5 73 -6 188 -1 202 0 207 19 207 77 0 248 95 320 178 51 59
118 193 126 255 4 26 8 47 10 47 2 0 4 -94 4 -208z m0 -411 c0 -38 -2 -40 -54
-64 -66 -31 -124 -88 -155 -156 -23 -48 -26 -51 -63 -51 -45 0 -46 7 -13 78
48 103 114 167 213 208 31 13 60 24 65 24 4 0 7 -18 7 -39z m0 -246 c0 -20 -5
-25 -25 -25 -29 0 -31 7 -8 32 22 25 33 23 33 -7z m215 -210 c23 -22 25 -31
25 -129 0 -121 -3 -132 -41 -151 -42 -22 -836 -22 -878 0 -38 19 -41 30 -41
151 0 98 2 107 25 129 l24 25 431 0 431 0 24 -25z"/>
</g>
</svg>
