<svg version="1.0" xmlns="http://www.w3.org/2000/svg"
 width="512pt" height="512pt" viewBox="0 0 512 512"
 preserveAspectRatio="xMidYMid meet">

<g transform="translate(0.000000,512.000000) scale(0.100000,-0.100000)"
fill="#fb9902" stroke="none">
<path d="M4648 5101 c-60 -19 -152 -80 -162 -107 -12 -31 -6 -74 14 -94 33
-33 66 -30 133 12 62 39 109 50 171 36 99 -21 169 -131 146 -231 -32 -144
-195 -204 -317 -117 -88 63 -80 67 -358 -210 l-245 -245 -65 65 c-109 108 -60
140 -588 -388 -249 -249 -454 -452 -457 -452 -3 0 -43 37 -89 81 -105 102
-167 133 -262 132 -140 -1 -258 -103 -278 -242 -6 -45 -7 -46 -52 -52 -124
-18 -223 -118 -244 -246 -6 -37 -10 -43 -31 -43 -48 0 -134 -41 -178 -86 -45
-44 -86 -130 -86 -178 0 -21 -6 -25 -43 -31 -130 -22 -228 -118 -246 -243 -6
-47 -6 -47 -52 -53 -120 -17 -214 -108 -238 -230 l-12 -56 -44 -7 c-176 -24
-288 -213 -225 -380 18 -48 42 -79 113 -153 l91 -94 -191 -192 c-185 -187
-191 -194 -218 -267 -15 -41 -34 -91 -42 -110 -8 -19 -67 -89 -134 -156 -135
-137 -142 -153 -90 -214 l30 -35 -200 -201 c-135 -135 -199 -207 -199 -222 0
-52 40 -92 92 -92 15 0 87 64 222 199 l201 200 35 -30 c61 -52 77 -45 214 90
67 67 137 126 156 134 19 8 69 27 110 42 73 27 80 33 267 218 l192 191 94 -91
c74 -71 105 -95 153 -113 167 -63 356 49 380 225 l7 44 56 12 c70 14 102 30
146 74 44 45 75 106 84 164 6 46 6 46 53 52 125 18 221 116 243 247 6 36 10
42 31 42 48 0 134 41 178 86 45 44 86 130 86 178 0 21 6 25 43 31 130 22 228
118 246 243 6 47 6 47 52 53 156 23 268 176 239 328 -14 76 -41 121 -131 216
l-83 86 454 454 c530 530 498 481 390 590 l-65 65 209 209 209 209 56 -26 c64
-30 178 -35 246 -13 109 37 202 132 236 242 41 133 9 260 -91 359 -99 100
-230 133 -362 91z m-983 -1651 l-415 -415 -107 108 -108 107 415 415 415 415
107 -107 108 -108 -415 -415z m-643 -428 l398 -397 0 -43 c0 -57 -21 -96 -64
-116 -49 -23 -84 -20 -141 14 -63 37 -79 37 -116 1 -36 -36 -37 -65 -3 -114
34 -50 40 -96 20 -139 -33 -69 -120 -89 -188 -43 -46 31 -94 32 -125 3 -31
-29 -29 -69 4 -119 19 -28 26 -53 26 -85 0 -39 -5 -51 -36 -81 -30 -31 -42
-36 -81 -36 -32 0 -57 7 -85 26 -51 34 -90 35 -121 2 -30 -32 -29 -73 4 -122
47 -69 29 -155 -40 -188 -45 -21 -90 -15 -141 19 -49 34 -78 33 -114 -3 -36
-37 -36 -53 1 -116 33 -56 37 -92 15 -139 -33 -68 -120 -86 -190 -39 -48 33
-87 34 -120 3 -31 -29 -33 -71 -5 -110 62 -87 37 -185 -53 -208 -73 -19 -70
-22 -475 382 -211 209 -388 389 -394 399 -15 28 -12 102 6 129 38 58 118 69
184 25 52 -34 91 -35 122 -2 31 33 30 72 -3 120 -47 70 -29 157 39 190 47 22
83 18 139 -15 63 -37 79 -37 116 -1 36 36 37 65 3 114 -34 50 -40 96 -20 139
33 69 120 89 189 42 49 -33 90 -34 122 -4 33 31 32 70 -2 121 -86 130 46 262
177 175 48 -32 86 -33 117 -4 31 29 30 78 -2 126 -46 68 -26 155 43 188 43 20
89 14 139 -20 49 -34 78 -33 114 3 36 37 36 53 -1 116 -33 56 -37 92 -15 139
20 42 61 65 115 66 l45 0 397 -398z m-1752 -1757 l105 -105 -178 -178 -177
-177 -108 -40 c-104 -38 -110 -42 -205 -134 l-98 -95 -36 37 -37 36 95 98 c91
95 96 101 133 203 l39 105 176 178 c97 97 178 177 181 177 3 0 52 -47 110
-105z"/>
<path d="M2606 2979 c-19 -15 -26 -29 -26 -57 0 -34 12 -48 153 -189 141 -141
155 -153 189 -153 44 0 78 36 78 83 0 27 -22 53 -153 184 -167 167 -184 177
-241 132z"/>
<path d="M2322 2694 c-35 -24 -45 -59 -28 -97 18 -40 272 -292 309 -306 33
-13 69 -1 91 31 34 48 25 64 -142 230 -166 167 -182 176 -230 142z"/>
<path d="M2040 2407 c-33 -16 -55 -57 -47 -88 3 -13 75 -93 160 -176 162 -161
177 -171 225 -137 35 24 44 59 28 97 -14 34 -285 307 -303 307 -6 0 -17 2 -25
5 -7 3 -24 -1 -38 -8z"/>
<path d="M1721 2094 c-45 -57 -35 -74 132 -241 131 -131 157 -153 184 -153 47
0 83 34 83 78 0 34 -12 48 -153 189 -141 141 -155 153 -189 153 -28 0 -42 -7
-57 -26z"/>
<path d="M1436 1809 c-20 -16 -26 -29 -26 -62 0 -39 5 -46 148 -189 143 -143
150 -148 189 -148 33 0 46 6 62 26 44 56 28 84 -136 245 -162 160 -182 171
-237 128z"/>
</g>
</svg>
