<svg width="16" height="16" viewBox="0 0 16 16" fill="none" xmlns="http://www.w3.org/2000/svg">
<g clip-path="url(#clip0)">
<path d="M14.9018 14.2737C13.1994 14.2737 11.3188 14.2737 10.7883 14.2737V13.2779H14.5747C14.2567 12.3098 13.9758 11.4546 13.975 11.4521C13.6575 11.4521 12.5448 11.4521 11.1178 11.4521C10.2603 12.2704 9.46751 13.0228 8.75726 13.9964L7.99982 15.0346L7.24247 13.9963C6.52582 13.0139 5.71572 12.2482 4.88204 11.4521C3.2331 11.4521 2.02626 11.4521 2.02479 11.4521C2.01985 11.4672 1.74069 12.317 1.4251 13.2779H5.21151V14.2737C4.48057 14.2737 2.63513 14.2737 1.09797 14.2737C0.797537 15.1883 0.538381 15.9773 0.531006 15.9999H15.4688C15.4615 15.9777 15.2023 15.1885 14.9018 14.2737Z" fill="#E89E2F"/>
<path d="M7.99989 13.444C10.2597 10.3462 13.4771 9.151 13.4771 5.47716C13.4771 2.33859 11.1385 0 7.99989 0C4.86233 0 2.52271 2.33859 2.52271 5.47719C2.52271 9.15053 5.74108 10.3472 7.99989 13.444ZM7.99989 4.18922C8.82277 4.18922 9.49367 4.86009 9.49367 5.683C9.49367 6.50556 8.82277 7.17678 7.99989 7.17678C7.17695 7.17678 6.50611 6.50556 6.50611 5.683C6.50611 4.86009 7.17695 4.18922 7.99989 4.18922Z" fill="#E89E2F"/>
</g>
<defs>
<clipPath id="clip0">
<rect width="16" height="16" fill="white"/>
</clipPath>
</defs>
</svg>
