<svg width="16" height="16" viewBox="0 0 16 16" fill="none" xmlns="http://www.w3.org/2000/svg">
<path d="M1.43725 7.46852L0.263184 6.66852L1.43725 5.49414V7.46852Z" fill="#E89E2F"/>
<path d="M2.37451 0.536844V8.1075C2.37451 8.1075 6.35448 10.8187 6.35451 10.8188C7.43639 11.5506 8.88139 11.5347 9.9492 10.7791L13.6251 8.17625V0.536844C13.6251 0.240344 13.3848 0 13.0883 0H2.91136C2.61486 0 2.37451 0.240344 2.37451 0.536844ZM11.6342 7.37937H4.37901C4.12676 7.37937 3.90964 7.18563 3.89757 6.93366C3.8847 6.66447 4.09907 6.44187 4.36576 6.44187H11.6209C11.8732 6.44187 12.0904 6.63562 12.1024 6.88766C12.1153 7.15684 11.9006 7.37937 11.6342 7.37937ZM11.6342 4.91969H4.37886C4.12632 4.91969 3.90917 4.72544 3.89754 4.47319C3.88514 4.204 4.09936 3.98219 4.36579 3.98219H11.6209C11.8732 3.98219 12.0904 4.17594 12.1024 4.42797C12.1153 4.69716 11.9006 4.91969 11.6342 4.91969ZM11.6342 2.45969H4.37901C4.12676 2.45969 3.90964 2.26594 3.89757 2.01397C3.8847 1.74478 4.09907 1.52219 4.36576 1.52219H11.621C11.8736 1.52219 12.0908 1.71644 12.1024 1.96875C12.1148 2.23791 11.9003 2.45969 11.6342 2.45969Z" fill="#E89E2F"/>
<path d="M15.7446 6.6757L14.563 7.51227V5.49414L15.7446 6.6757Z" fill="#E89E2F"/>
<path d="M16 7.64371V15.305C16 15.6888 15.6888 16 15.305 16H0.695C0.311156 16 0 15.6888 0 15.305V7.62402L5.06906 11.0771L2.14741 13.9988C1.96981 14.1764 1.95213 14.4653 2.11972 14.6524C2.29966 14.8533 2.61066 14.8615 2.80063 14.6716L5.85813 11.6141C7.32022 12.5706 9.08469 12.4789 10.3872 11.6147L13.4441 14.6716C13.6269 14.8544 13.9239 14.8545 14.1069 14.6716C14.29 14.4884 14.29 14.1916 14.1069 14.0084L11.165 11.0669L16 7.64371Z" fill="#E89E2F"/>
</svg>
