<?xml version="1.0" standalone="no"?>
<!DOCTYPE svg PUBLIC "-//W3C//DTD SVG 20010904//EN"
 "http://www.w3.org/TR/2001/REC-SVG-20010904/DTD/svg10.dtd">
<svg version="1.0" xmlns="http://www.w3.org/2000/svg"
 width="512.000000pt" height="512.000000pt" viewBox="0 0 512.000000 512.000000"
 preserveAspectRatio="xMidYMid meet">

<g transform="translate(0.000000,512.000000) scale(0.100000,-0.100000)"
fill="#000000" stroke="none">
<path d="M3695 5101 c-27 -13 -200 -179 -525 -505 -463 -464 -484 -487 -484
-522 0 -26 7 -42 23 -55 53 -43 43 -51 561 466 267 267 491 485 498 485 19 0
102 -80 102 -99 0 -17 -1458 -1481 -1475 -1481 -13 0 -105 92 -105 105 0 4 66
75 147 156 127 129 146 152 146 180 0 40 -32 69 -77 69 -27 0 -52 -21 -187
-157 -171 -173 -187 -198 -174 -281 6 -39 17 -57 78 -120 40 -41 86 -81 104
-88 43 -19 107 -18 146 2 18 9 107 91 200 182 l167 166 52 -51 52 -52 -23 -41
c-18 -32 -22 -53 -19 -95 l3 -55 -1001 -1002 c-1068 -1070 -1035 -1033 -1019
-1115 6 -35 4 -38 -133 -177 -152 -153 -161 -169 -148 -259 6 -42 6 -43 -65
-112 -39 -39 -79 -87 -90 -107 -23 -45 -24 -106 -4 -155 l16 -37 -121 -121
c-103 -103 -120 -125 -120 -152 0 -22 8 -38 26 -52 50 -39 68 -31 199 99 l121
120 37 -15 c45 -19 98 -19 140 -1 18 8 68 50 111 94 71 72 81 79 103 71 80
-30 132 -3 287 151 l131 129 57 0 c31 0 69 6 85 15 15 8 245 232 510 498 438
438 483 487 483 516 0 42 -30 72 -72 72 -30 0 -77 -45 -515 -482 l-483 -483
-208 208 -207 207 990 990 990 990 207 -207 208 -208 -405 -405 c-362 -362
-405 -409 -405 -437 0 -22 8 -38 26 -52 57 -44 49 -51 489 389 l410 410 38 -7
c79 -12 98 2 470 375 242 242 347 354 347 369 0 37 -42 76 -80 75 -30 -1 -66
-33 -369 -336 -185 -185 -341 -336 -346 -336 -6 0 -131 121 -279 269 -210 210
-267 272 -262 287 10 32 1129 1144 1151 1144 24 0 545 -517 545 -540 0 -8 -59
-74 -132 -147 -114 -114 -131 -136 -131 -164 0 -37 40 -79 75 -79 27 0 305
272 324 317 20 45 17 107 -5 151 -25 48 -567 587 -604 601 -46 18 -118 13
-161 -10 l-39 -21 -51 51 -50 50 22 40 c24 42 29 111 12 156 -15 40 -120 145
-165 166 -51 24 -99 24 -150 0z m230 -521 l50 -50 -463 -463 -462 -462 -52 53
-53 52 460 460 c253 253 462 460 465 460 3 0 28 -23 55 -50z m-2790 -3930
c-66 -66 -123 -120 -126 -120 -14 0 -259 247 -259 260 0 8 53 68 117 132 l118
118 135 -135 135 -135 -120 -120z m-368 -102 l53 -52 -67 -68 c-37 -37 -72
-68 -78 -68 -16 0 -95 83 -95 100 0 13 117 140 129 140 3 0 29 -23 58 -52z"/>
<path d="M2024 1909 c-217 -217 -397 -404 -400 -417 -7 -27 19 -70 49 -81 12
-5 33 -4 47 1 14 5 198 181 408 391 360 360 382 385 382 418 0 40 -20 64 -63
75 -27 6 -50 -14 -423 -387z"/>
</g>
</svg>
