<svg width="15" height="15" viewBox="0 0 15 15" fill="none" xmlns="http://www.w3.org/2000/svg">
<g clip-path="url(#clip0)">
<path d="M14.4252 3.06287C13.8497 2.27089 12.8417 1.55605 11.5871 1.05009C10.3392 0.546888 8.89025 0.268597 7.50717 0.266634C6.12398 0.263177 4.67329 0.538597 3.4236 1.03787C2.16676 1.54005 1.15643 2.25179 0.578755 3.0419C0.0239311 3.80075 -0.135971 4.61868 0.116304 5.4073C0.279986 5.91885 0.757378 6.26309 1.30453 6.26388L3.17809 6.26564C3.17874 6.26564 3.17935 6.26564 3.17997 6.26564C3.55356 6.26561 3.90457 6.10207 4.1431 5.81675C4.37912 5.53448 4.47685 5.16557 4.41134 4.80457C4.40941 4.79397 4.40709 4.78345 4.40443 4.77299L4.30585 4.38973C4.85176 4.12925 6.08868 3.62599 7.5014 3.63399C8.9131 3.64122 10.1492 4.14419 10.6957 4.40479L10.5956 4.78588C10.5927 4.79669 10.5903 4.80753 10.5883 4.81846C10.5218 5.17925 10.6185 5.54842 10.8536 5.83137C11.0918 6.11789 11.443 6.28248 11.8176 6.28304L13.6912 6.2848C13.6918 6.2848 13.6924 6.2848 13.693 6.2848C14.2392 6.28477 14.7167 5.94214 14.8816 5.43164C15.1363 4.64324 14.9785 3.82415 14.4252 3.06287Z" fill="#E89E2F"/>
<path d="M11.7362 8.19747L10.3391 6.73043C10.2546 6.64172 10.1375 6.59153 10.015 6.59153H9.11204V5.98148C9.11204 5.73431 8.91165 5.53389 8.66444 5.53389C8.41723 5.53389 8.21684 5.73428 8.21684 5.98148V6.59153H6.78358V5.98148C6.78358 5.73431 6.58319 5.53389 6.33598 5.53389C6.08878 5.53389 5.88839 5.73428 5.88839 5.98148V6.59153H4.98549C4.863 6.59153 4.74584 6.64175 4.66138 6.73043L3.26421 8.19747C2.16874 9.34772 1.56543 10.856 1.56543 12.4444V14.2858C1.56543 14.533 1.76582 14.7334 2.01303 14.7334H12.9874C13.2346 14.7334 13.435 14.533 13.435 14.2858V12.4444C13.435 10.856 12.8317 9.34775 11.7362 8.19747ZM7.50021 13.0973C6.20851 13.0973 5.15767 12.0464 5.15767 10.7547C5.15767 9.46303 6.20854 8.41215 7.50021 8.41215C8.79188 8.41215 9.84276 9.46303 9.84276 10.7547C9.84276 12.0464 8.79188 13.0973 7.50021 13.0973Z" fill="#E89E2F"/>
<path d="M7.50009 9.30735C6.70198 9.30735 6.05273 9.95663 6.05273 10.7547C6.05273 11.5528 6.70201 12.2021 7.50009 12.2021C8.29816 12.2021 8.94744 11.5528 8.94744 10.7547C8.94744 9.95666 8.29816 9.30735 7.50009 9.30735Z" fill="#E89E2F"/>
</g>
<defs>
<clipPath id="clip0">
<rect width="15" height="15" fill="white"/>
</clipPath>
</defs>
</svg>
