<svg version="1.0" xmlns="http://www.w3.org/2000/svg"
 width="512pt" height="512pt" viewBox="0 0 512 512"
 preserveAspectRatio="xMidYMid meet">

<g transform="translate(0.000000,512.000000) scale(0.100000,-0.100000)"
fill="#fb9902" stroke="none">
<path d="M29 4371 l-29 -29 0 -306 0 -306 28 -31 c45 -50 81 -44 205 35 l104
66 191 0 192 0 0 -171 0 -171 29 -29 c29 -28 32 -29 133 -29 84 0 108 -4 132
-19 42 -28 66 -70 66 -117 0 -23 -50 -385 -110 -804 -61 -419 -110 -772 -110
-786 0 -62 93 -87 131 -34 13 19 44 210 128 800 61 426 111 800 111 832 0 111
-93 235 -200 267 -20 6 -65 11 -99 11 l-61 0 0 325 0 325 980 0 980 0 0 -320
c0 -307 1 -321 20 -340 19 -19 33 -20 383 -20 340 0 365 1 380 18 14 16 17 43
17 171 0 86 5 161 10 172 9 16 22 19 75 19 l65 0 0 -349 c0 -328 -1 -350 -19
-372 l-19 -24 -769 -5 c-698 -5 -771 -7 -799 -22 -44 -24 -91 -81 -104 -125
-6 -21 -78 -503 -160 -1071 -82 -570 -154 -1039 -160 -1047 -11 -13 -76 -15
-421 -15 l-409 0 -11 23 c-8 18 -4 69 16 208 15 101 27 199 28 217 2 64 -78
101 -124 56 -30 -30 -88 -453 -71 -512 16 -52 54 -97 103 -122 36 -19 61 -20
469 -20 344 0 437 3 463 14 38 16 92 71 106 108 5 14 78 498 161 1075 112 777
156 1053 167 1066 15 16 46 17 379 17 l362 0 4 -91 c3 -81 6 -93 27 -110 30
-25 76 -24 101 1 17 17 20 33 20 110 l0 90 100 0 100 0 0 -445 c0 -489 0 -490
-59 -515 -39 -16 -82 -5 -112 26 -24 25 -24 30 -27 249 l-3 224 -26 21 c-29
23 -42 24 -77 9 -43 -20 -48 -50 -44 -286 3 -240 6 -252 72 -321 103 -110 282
-102 373 16 18 24 37 59 43 80 6 23 10 208 10 488 l0 452 147 4 c127 3 154 7
189 25 53 28 100 82 115 133 l12 40 539 0 c594 0 589 0 628 62 19 30 20 46 18
186 l-3 154 -37 34 c-35 32 -42 34 -108 34 l-70 0 0 275 c0 300 -2 314 -57
351 -24 16 -47 19 -163 19 -121 0 -139 -2 -170 -22 -47 -29 -70 -71 -70 -126
0 -37 38 -308 65 -465 l6 -32 -288 2 -288 3 -5 282 c-5 267 -6 283 -25 297
-16 12 -55 15 -198 16 -176 0 -178 0 -202 -25 -32 -31 -32 -69 0 -100 23 -24
30 -25 150 -25 l125 0 0 -35 0 -35 -77 0 c-89 0 -150 -24 -184 -71 l-20 -29
-260 0 -259 0 0 85 0 85 125 0 c120 0 127 1 150 25 32 31 32 69 0 100 -23 24
-30 25 -148 25 l-125 0 -12 30 c-7 17 -21 35 -31 40 -11 6 -423 10 -1091 10
-1168 0 -1108 3 -1122 -55 l-6 -25 -195 0 -195 0 -98 65 c-115 77 -154 84
-203 36z m238 -235 c27 -13 67 -16 243 -16 l210 0 0 -84 0 -85 -218 -3 -218
-3 -67 -42 -67 -42 0 175 0 175 43 -29 c23 -16 56 -37 74 -46z m4483 -376 l0
-410 -40 0 -40 0 0 136 c0 109 -8 185 -40 390 -22 140 -40 264 -40 275 0 17 8
19 80 19 l80 0 0 -410z m-1270 -25 l0 -65 -250 0 -250 0 0 65 0 65 250 0 250
0 0 -65z m1040 -300 l0 -85 -292 2 -293 3 -3 83 -3 82 296 0 295 0 0 -85z
m450 0 l0 -85 -35 0 -35 0 0 85 0 85 35 0 35 0 0 -85z"/>
<path d="M1292 3909 c-128 -64 -160 -235 -64 -341 130 -144 351 -78 387 114
16 84 -44 192 -128 231 -50 24 -142 22 -195 -4z m157 -155 c27 -35 26 -59 -4
-89 -33 -34 -77 -33 -104 1 -27 34 -27 64 -1 92 30 32 82 30 109 -4z"/>
<path d="M2420 3919 c-78 -32 -140 -123 -140 -210 0 -118 104 -219 226 -219
184 0 286 220 167 359 -49 58 -99 81 -170 80 -32 0 -69 -5 -83 -10z m135 -159
c42 -47 8 -120 -55 -120 -33 0 -70 40 -70 76 0 57 86 87 125 44z"/>
<path d="M1313 2850 c-46 -19 -57 -83 -20 -118 23 -22 29 -22 308 -22 285 0
286 0 307 23 27 29 28 67 3 98 l-19 24 -279 2 c-153 1 -288 -2 -300 -7z"/>
<path d="M1251 2554 c-28 -35 -26 -69 4 -99 l24 -25 281 0 281 0 24 25 c32 31
33 74 2 103 -23 22 -29 22 -309 22 l-287 0 -20 -26z"/>
<path d="M1235 2299 c-49 -28 -58 -70 -24 -113 l20 -26 290 0 c276 0 290 1
309 20 25 25 26 71 1 101 l-19 24 -279 2 c-191 2 -284 -1 -298 -8z"/>
<path d="M1175 2005 c-14 -13 -25 -36 -25 -50 0 -14 11 -37 25 -50 l24 -25
279 0 c267 0 280 1 306 21 34 27 36 77 3 107 -23 22 -30 22 -306 22 l-282 0
-24 -25z"/>
<path d="M1164 1750 c-26 -10 -54 -48 -54 -71 0 -9 9 -28 21 -43 l20 -26 290
0 c276 0 290 1 309 20 38 38 22 100 -31 119 -38 13 -523 14 -555 1z"/>
<path d="M1280 1459 c-48 -19 -93 -62 -116 -113 -40 -86 -28 -169 34 -238 130
-144 351 -78 387 114 16 84 -49 200 -131 234 -38 16 -137 18 -174 3z m140
-166 c37 -47 2 -113 -60 -113 -33 0 -70 40 -70 76 0 62 90 87 130 37z"/>
</g>
</svg>
