<svg width="700" height="735" viewBox="0 0 700 735" fill="none" xmlns="http://www.w3.org/2000/svg">
<circle cx="350" cy="350" r="350" fill="#0D0F11"/>
<path d="M98.906 138.529C92.2012 142.229 92.4013 152.829 99.3063 155.93C101.208 156.83 113.717 157.13 144.839 157.13H187.869V211.231V265.233L181.065 272.933C139.035 320.834 119.12 381.236 124.925 444.138C128.927 488.739 147.741 533.641 176.661 568.242C242.709 647.044 354.588 671.345 446.954 627.044C468.87 616.543 473.073 613.243 473.073 606.543C473.073 603.043 467.169 597.143 463.666 597.143C462.165 597.143 455.66 600.043 449.256 603.543C403.423 628.644 349.585 635.544 299.349 622.643C216.59 601.443 155.246 531.541 145.439 447.138C130.028 315.434 242.008 203.331 373.502 218.631C480.078 231.032 559.835 323.635 555.832 430.138C554.331 468.539 544.223 501.14 523.509 534.241C517.104 544.441 516.604 547.841 521.007 552.241C523.209 554.441 524.91 555.141 527.812 555.141C533.216 555.141 535.217 553.341 541.722 542.841C594.86 457.239 585.653 348.835 518.905 272.933L512.101 265.233V211.231V157.13H555.131C601.264 157.13 602.165 157.03 604.767 152.029C607.469 146.829 605.567 140.529 600.664 138.329C596.661 136.429 102.308 136.629 98.906 138.529ZM235.904 192.531V228.032L229.799 231.632C226.497 233.732 220.192 238.032 215.789 241.232L207.884 247.132V202.131V157.13H221.894H235.904V192.531ZM444.052 187.13C444.052 203.631 443.852 217.131 443.652 217.131C443.452 217.131 440.149 215.831 436.447 214.231C420.735 207.531 399.02 201.731 379.506 198.931C374.502 198.231 361.393 197.631 349.985 197.631C328.27 197.631 318.563 198.631 300.149 202.731C288.741 205.231 270.628 211.031 261.622 215.031C258.92 216.131 256.518 217.131 256.318 217.131C256.118 217.131 255.918 203.631 255.918 187.13V157.13H349.985H444.052V187.13ZM492.086 202.131V247.132L484.081 241.132C479.677 237.932 473.373 233.532 470.071 231.532L464.066 227.832V192.531V157.13H478.076H492.086V202.131Z" fill="#FB9902"/>
<path d="M420.535 292.034C418.934 293.034 412.63 298.934 406.525 305.034L395.617 316.134L386.011 306.634C374.803 295.734 370.199 293.134 361.493 293.134C351.186 293.134 348.884 294.834 323.266 320.434C297.548 346.135 296.046 348.335 295.946 358.936C295.946 367.636 298.248 371.736 309.556 383.136L318.963 392.637L306.554 405.037L294.045 417.437L288.541 412.337C282.637 406.937 280.235 406.037 275.432 407.337C271.229 408.437 208.184 471.439 207.083 475.639C205.782 480.339 206.783 482.839 212.187 488.739L217.19 494.24L206.683 504.94C200.779 510.94 195.875 516.84 195.575 518.34C193.874 525.041 200.979 532.141 207.683 530.441C209.185 530.141 215.089 525.241 221.093 519.34L231.801 508.84L237.405 513.94C243.209 519.34 245.61 520.24 250.414 518.94C254.617 517.84 317.662 454.838 318.763 450.638C320.064 445.938 319.063 443.438 313.659 437.538L308.655 432.038L321.064 419.537L333.473 407.137L340.378 414.137L347.383 421.037L341.679 427.038C336.775 432.138 335.975 433.538 335.975 436.738C335.975 440.438 337.276 441.838 367.497 472.139C384.81 489.44 399.02 504.14 399.02 504.74C399.02 505.24 397.419 507.24 395.517 509.14C393.616 510.94 391.815 513.74 391.515 515.34C390.114 521.64 395.117 527.141 402.222 527.141C405.124 527.141 408.126 524.441 432.244 500.44L458.963 473.739L464.366 478.939C470.571 484.739 473.773 485.939 478.176 484.139C482.279 482.439 484.08 479.439 484.08 474.639C484.08 471.039 483.48 469.939 478.577 465.139L473.073 459.639L501.193 431.538C527.011 405.737 529.313 403.137 529.813 399.437C530.313 395.937 529.913 394.937 527.311 392.037C524.81 389.237 523.609 388.637 520.206 388.637C516.804 388.637 515.503 389.337 511.8 392.937L507.597 397.137L480.678 370.236L453.759 343.235L456.861 339.635C460.464 335.535 461.064 330.635 458.462 326.635C456.561 323.735 450.957 321.735 447.855 322.735C446.554 323.035 440.75 328.135 434.745 333.935L424.038 344.535L417.033 337.635L410.028 330.635L421.936 318.634C428.441 312.034 434.345 305.634 434.945 304.434C436.947 300.534 436.246 297.134 432.644 293.534C428.741 289.634 425.138 289.134 420.535 292.034ZM372.901 321.635L381.507 330.135L357.29 354.335L332.973 378.636L324.467 370.136C318.262 364.036 315.961 361.036 315.961 359.136C315.961 355.636 358.291 313.134 361.893 313.134C363.495 313.134 366.897 315.734 372.901 321.635ZM402.722 351.335C406.225 354.736 409.027 358.036 409.027 358.636C409.027 359.136 398.319 370.336 385.21 383.436L361.493 407.137L354.488 400.137L347.483 393.137L371.5 369.136C384.71 355.936 395.717 345.135 396.018 345.135C396.218 345.135 399.32 347.935 402.722 351.335ZM467.068 384.636L493.587 411.137L485.081 419.637L476.575 428.138L449.556 401.137L422.537 374.136L430.542 366.136C434.945 361.736 438.948 358.136 439.549 358.136C440.149 358.136 452.458 370.036 467.068 384.636ZM435.346 415.937L462.065 442.638L453.559 451.138L445.053 459.639L418.033 432.638L391.014 405.637L399.22 397.437C403.823 392.837 407.726 389.137 408.026 389.137C408.326 389.137 420.635 401.137 435.346 415.937ZM404.324 446.938L431.043 473.639L422.537 482.139L414.031 490.64L387.011 463.639L359.992 436.638L368.198 428.438C372.801 423.838 376.704 420.137 377.004 420.137C377.304 420.137 389.613 432.138 404.324 446.938ZM271.229 471.339L247.412 495.14L239.206 486.939L230.9 478.639L254.617 454.938L278.434 431.138L286.64 439.338L294.946 447.638L271.229 471.339Z" fill="#FB9902"/>
<path d="M491.986 573.042C484.281 580.742 492.587 592.943 502.594 588.743C505.096 587.643 506.597 586.142 507.698 583.642C511.901 573.642 499.692 565.342 491.986 573.042Z" fill="#FB9902"/>
</svg>
