<svg version="1.0" xmlns="http://www.w3.org/2000/svg"
 width="512pt" height="512pt" viewBox="0 0 512 512"
 preserveAspectRatio="xMidYMid meet">

<g transform="translate(0.000000,512.000000) scale(0.100000,-0.100000)"
fill="#fb9902" stroke="none">
<path d="M4757 5030 c-21 -6 -52 -17 -70 -26 -18 -9 -220 -203 -449 -432
l-418 -417 0 256 c0 165 -4 268 -11 290 -18 51 -55 97 -102 122 l-42 22 -1725
3 c-1174 1 -1741 -1 -1776 -8 -62 -13 -120 -59 -145 -114 -18 -39 -19 -123
-19 -2261 0 -2126 1 -2222 19 -2260 23 -51 80 -101 130 -115 27 -7 460 -9
1365 -8 l1326 3 487 488 488 487 3 960 2 961 -24 24 c-32 32 -75 33 -104 2
l-22 -23 0 -907 0 -907 -387 0 c-354 0 -392 -2 -428 -19 -51 -23 -101 -79
-114 -128 -7 -23 -11 -183 -11 -415 l0 -378 -1268 0 c-1131 0 -1270 2 -1290
16 l-22 15 0 2198 c0 1882 2 2200 14 2217 14 19 43 19 1746 19 1703 0 1732 0
1746 -19 11 -16 14 -80 14 -345 l0 -326 -464 -465 -463 -465 -23 -87 c-13 -49
-24 -88 -25 -88 -1 0 -20 17 -41 37 -78 73 -208 112 -312 93 -159 -29 -277
-145 -311 -308 -16 -75 -14 -197 4 -267 61 -235 229 -315 440 -211 97 48 206
152 253 243 32 60 35 63 90 79 31 9 61 19 66 22 14 8 -4 -106 -29 -185 -13
-40 -37 -95 -54 -122 -36 -55 -123 -140 -194 -189 l-48 -33 7 -78 6 -79 -33
-36 c-26 -27 -46 -38 -83 -45 -76 -14 -81 -22 -84 -171 l-4 -130 -114 0 -114
0 0 139 c0 125 -2 141 -21 165 -27 34 -77 36 -107 3 -20 -22 -22 -33 -22 -165
l0 -142 -115 0 -115 0 0 139 c0 125 -2 141 -21 165 -27 34 -77 36 -107 3 -20
-22 -22 -33 -22 -165 l0 -142 -114 0 c-95 0 -115 3 -120 16 -3 9 -6 67 -6 129
0 105 -2 116 -22 135 -12 11 -33 20 -46 20 -38 0 -86 28 -106 61 -15 26 -17
43 -12 100 8 79 7 81 -99 154 -105 72 -179 190 -211 333 -23 103 -15 325 16
437 80 294 302 551 580 671 137 59 235 78 405 78 122 0 167 -4 239 -22 173
-43 326 -126 453 -246 54 -50 71 -60 100 -60 41 0 73 31 73 71 0 57 -184 210
-354 293 -263 129 -552 155 -835 74 -107 -31 -287 -118 -366 -179 -219 -166
-374 -395 -442 -653 -35 -132 -43 -360 -18 -483 34 -170 116 -311 239 -411
l66 -53 0 -53 c0 -94 50 -175 137 -224 l53 -30 0 -63 c0 -126 23 -183 91 -224
33 -20 45 -21 565 -21 l531 0 34 23 c64 43 79 78 79 187 l0 97 40 18 c90 41
160 145 160 241 0 50 1 52 59 98 72 56 142 147 188 242 36 76 73 229 73 306
l0 46 68 21 67 20 947 948 c1025 1026 984 981 995 1103 11 118 -53 232 -160
284 -59 29 -144 40 -200 26z m151 -169 c56 -39 78 -123 48 -179 -8 -15 -53
-65 -100 -112 l-86 -85 -102 103 -103 102 80 81 c44 45 98 90 120 100 48 24
102 20 143 -10z m-343 -381 l100 -100 -793 -793 -792 -792 -136 -38 c-76 -20
-138 -36 -139 -35 -1 2 15 66 37 143 l39 140 787 788 c433 433 789 787 792
787 3 0 50 -45 105 -100z m-2110 -1601 c55 -14 122 -70 146 -123 25 -54 24
-139 -1 -194 -26 -58 -122 -152 -189 -185 -79 -39 -133 -37 -176 6 -42 42 -65
118 -65 212 0 156 65 256 185 286 44 10 52 10 100 -2z m770 -2199 l-340 -340
-3 316 c-2 272 0 320 13 341 l15 23 328 0 327 0 -340 -340z"/>
<path d="M377 4490 l-27 -21 0 -150 c0 -136 2 -151 20 -169 27 -27 81 -26 106
1 15 17 20 40 22 115 l4 94 89 0 c83 0 92 2 116 26 20 20 24 31 19 57 -12 58
-23 62 -179 65 -133 3 -144 2 -170 -18z"/>
<path d="M3147 4490 c-34 -27 -37 -80 -7 -110 17 -17 33 -20 115 -20 l95 0 0
-95 c0 -82 3 -98 20 -115 30 -30 83 -27 110 7 20 26 21 37 18 170 -3 120 -6
145 -21 160 -15 15 -40 18 -160 21 -133 3 -144 2 -170 -18z"/>
<path d="M1310 3027 c-113 -27 -203 -94 -250 -190 -85 -175 -52 -327 104 -482
103 -102 187 -146 292 -153 90 -6 134 9 192 61 99 92 145 275 112 447 -42 222
-244 364 -450 317z m175 -166 c48 -21 98 -76 116 -128 21 -58 18 -227 -4 -285
-25 -64 -67 -98 -120 -98 -115 0 -279 143 -308 268 -11 49 5 130 35 170 68 93
171 120 281 73z"/>
<path d="M1783 2177 c-89 -89 -96 -107 -62 -151 31 -39 78 -36 129 10 l40 36
40 -36 c46 -41 85 -47 118 -16 40 37 30 80 -35 150 -57 62 -98 90 -129 90 -10
0 -55 -37 -101 -83z"/>
<path d="M376 749 l-26 -20 0 -153 c0 -200 -9 -191 187 -191 l145 0 24 28 c30
35 30 59 0 93 -21 26 -30 28 -114 32 l-90 4 -4 90 c-3 84 -5 91 -31 114 -34
29 -56 30 -91 3z"/>
</g>
</svg>
