<svg version="1.0" xmlns="http://www.w3.org/2000/svg"
 width="512pt" height="512pt" viewBox="0 0 512 512"
 preserveAspectRatio="xMidYMid meet">

<g transform="translate(0.000000,512.000000) scale(0.100000,-0.100000)"
fill="#fb9902" stroke="none">
<path d="M1855 5108 c-45 -26 -44 -11 -45 -670 l0 -628 -253 0 -254 0 -23 -25
c-17 -18 -25 -40 -28 -80 l-4 -55 -79 0 -79 0 0 55 c0 46 -4 60 -25 81 -25 25
-27 25 -174 22 -144 -3 -149 -4 -197 -33 -127 -79 -153 -255 -54 -368 60 -68
106 -82 268 -82 l134 0 24 28 c19 22 24 39 24 83 l0 54 80 0 80 0 0 -39 c0
-21 5 -52 11 -70 19 -53 48 -61 229 -61 l160 0 0 -83 0 -84 -59 -16 c-122 -34
-254 -155 -300 -275 -39 -101 -42 -177 -38 -872 3 -586 5 -671 20 -713 30 -86
70 -148 140 -212 63 -59 113 -86 220 -119 15 -5 17 -23 17 -192 0 -151 3 -192
16 -220 20 -42 77 -91 116 -99 l28 -7 0 -186 c1 -196 3 -207 47 -230 34 -18
62 -14 88 13 25 24 25 26 25 213 l0 190 29 5 c16 4 46 21 66 38 65 58 69 73
73 286 l4 191 36 7 c20 4 56 17 81 30 115 58 185 136 237 260 l29 70 3 690 c2
476 -1 711 -8 757 -30 175 -171 333 -337 377 l-43 12 0 84 0 85 1159 0 c820 0
1167 3 1190 11 17 6 36 19 41 29 6 11 10 105 10 213 0 250 10 237 -183 237
l-137 0 0 410 0 410 135 0 c131 0 137 1 160 25 25 24 25 25 25 220 0 195 0
196 -25 220 l-24 25 -1308 0 c-965 -1 -1313 -4 -1328 -12z m2525 -233 l0 -85
-1202 2 -1203 3 -3 69 c-2 38 -1 75 2 83 5 11 208 13 1206 13 l1200 0 0 -85z
m-2242 -652 l-3 -408 -80 0 -80 0 -3 408 -2 407 85 0 85 0 -2 -407z m952 -3
l0 -410 -80 0 -80 0 0 303 0 304 -25 23 c-15 14 -37 23 -55 23 -18 0 -40 -9
-55 -23 l-25 -23 0 -304 0 -303 -235 0 -235 0 0 410 0 410 395 0 395 0 0 -410z
m960 0 l0 -410 -80 0 -80 0 0 298 c0 257 -2 301 -16 320 -22 32 -58 44 -91 31
-52 -20 -52 -21 -53 -346 l0 -303 -235 0 -235 0 0 410 0 410 395 0 395 0 0
-410z m-3120 -650 l0 -80 -70 0 c-62 0 -74 3 -95 25 -27 26 -32 70 -12 96 22
28 51 38 115 39 l62 0 0 -80z m3450 0 l0 -80 -1480 0 -1480 0 0 80 0 80 1480
0 1480 0 0 -80z m-2410 -330 l0 -80 -80 0 -80 0 0 80 0 80 80 0 80 0 0 -80z
m192 -265 c61 -22 137 -90 166 -148 13 -25 27 -72 32 -104 13 -80 13 -1270 0
-1352 -6 -35 -20 -81 -31 -103 -26 -52 -89 -111 -147 -140 -45 -22 -56 -23
-287 -23 -229 0 -242 1 -291 23 -60 27 -123 89 -156 152 l-23 45 -3 707 c-2
688 -2 708 18 760 38 101 131 179 238 198 26 5 135 7 242 6 154 -3 205 -7 242
-21z m-194 -2207 l-3 -173 -75 0 -75 0 -3 173 -2 172 80 0 80 0 -2 -172z"/>
<path d="M1634 2760 c-28 -11 -54 -48 -54 -77 0 -12 11 -35 24 -50 l24 -28
260 0 260 0 26 24 c35 33 35 79 0 112 -25 24 -26 24 -272 26 -136 1 -257 -2
-268 -7z"/>
<path d="M1633 2440 c-58 -23 -66 -104 -15 -138 23 -15 57 -17 280 -17 l254 0
24 28 c39 45 29 98 -23 125 -26 14 -486 16 -520 2z"/>
<path d="M1608 2100 c-25 -26 -29 -36 -24 -63 13 -66 19 -67 311 -67 l264 0
20 26 c23 30 27 71 8 95 -27 36 -52 39 -302 39 l-247 0 -30 -30z"/>
<path d="M1612 1790 c-12 -11 -24 -31 -28 -44 -7 -28 18 -81 41 -90 9 -3 131
-6 271 -6 l255 0 24 25 c16 15 25 36 25 55 0 19 -9 40 -25 55 l-24 25 -259 0
c-246 0 -259 -1 -280 -20z"/>
<path d="M1622 1483 c-21 -8 -44 -63 -38 -89 4 -13 16 -33 28 -44 21 -19 34
-20 280 -20 l259 0 24 25 c16 15 25 36 25 55 0 19 -9 40 -25 55 l-24 25 -258
-1 c-142 0 -264 -3 -271 -6z"/>
</g>
</svg>
