<svg version="1.0" xmlns="http://www.w3.org/2000/svg"
 width="512pt" height="512pt" viewBox="0 0 512 512"
 preserveAspectRatio="xMidYMid meet">

<g transform="translate(0.000000,512.000000) scale(0.100000,-0.100000)"
fill="#fb9902" stroke="none">
<path d="M1506 5099 c-19 -15 -26 -30 -26 -54 0 -24 7 -39 26 -54 24 -19 40
-21 185 -21 l159 0 0 -70 c0 -69 0 -70 -26 -70 -17 0 -40 -14 -65 -39 l-39
-39 0 -108 0 -109 -56 -65 c-31 -36 -71 -86 -88 -113 l-33 -47 -34 57 c-42 71
-114 128 -191 151 l-58 17 0 73 c0 88 -18 133 -66 163 -31 19 -46 20 -153 17
-111 -3 -121 -5 -147 -28 -39 -37 -54 -80 -54 -160 0 -60 -2 -70 -17 -70 -35
0 -139 -58 -181 -101 -23 -24 -55 -69 -70 -99 l-27 -55 -3 -1728 c-1 -1190 1
-1741 8 -1768 24 -89 111 -149 225 -157 l70 -4 -3 -74 c-3 -63 -6 -74 -24 -80
-32 -10 -98 -74 -121 -118 -30 -57 -29 -155 0 -212 90 -170 322 -178 421 -14
27 46 32 64 32 117 0 35 -6 78 -14 97 -19 46 -70 101 -111 120 -34 16 -35 19
-35 71 0 42 5 60 20 75 20 20 33 20 1180 20 1147 0 1160 0 1180 -20 15 -15 20
-33 20 -73 0 -47 -3 -55 -24 -65 -39 -17 -96 -73 -115 -111 -59 -117 -13 -263
102 -323 65 -34 167 -32 230 5 136 80 163 256 56 372 -22 23 -53 48 -69 55
-28 12 -30 16 -30 70 0 32 -2 65 -6 73 -4 11 10 15 68 19 106 7 169 43 211
123 22 40 22 41 25 901 2 860 2 861 -18 887 l-21 27 -767 2 -767 3 0 370 0
370 713 3 712 2 0 -246 c0 -154 4 -253 11 -265 25 -48 105 -44 128 7 7 17 11
116 11 297 l0 272 152 508 152 507 197 0 198 0 20 26 c26 33 27 65 2 95 l-19
24 -329 0 -328 0 -56 -26 c-69 -32 -127 -89 -156 -149 -11 -25 -47 -134 -79
-242 l-58 -198 -17 61 c-11 40 -28 72 -50 95 -63 65 -62 65 -579 62 -256 -2
-472 -7 -481 -11 -14 -7 -20 -1 -29 30 -30 92 -102 208 -194 314 l-54 62 -4
113 c-3 109 -4 114 -32 143 -16 17 -44 34 -63 37 l-33 6 0 69 0 69 96 0 c107
0 119 -5 186 -66 62 -58 105 -59 134 -3 21 42 9 72 -56 133 -93 85 -98 86
-490 86 -326 0 -338 -1 -364 -21z m474 -469 l0 -50 -55 0 -55 0 0 50 0 50 55
0 55 0 0 -50z m-870 -40 l0 -50 -60 0 -60 0 0 50 0 50 60 0 60 0 0 -50z m954
-207 c99 -112 165 -228 198 -352 17 -64 21 -116 25 -323 l5 -248 -367 0 -367
0 5 248 c3 182 9 264 21 311 26 103 87 219 167 319 l73 92 99 0 99 0 42 -47z
m-749 -28 c32 -20 56 -45 72 -74 23 -44 23 -45 23 -433 l0 -388 -360 0 -360 0
0 383 c0 423 1 428 68 490 54 51 87 57 308 54 l201 -2 48 -30z m2665 23 c0 -6
-59 -208 -130 -447 -72 -240 -133 -444 -136 -453 -4 -15 -18 -18 -80 -18 -44
0 -74 4 -74 10 0 6 55 194 122 418 105 349 127 412 153 440 41 45 145 81 145
50z m-616 -410 c11 -15 16 -46 16 -95 l0 -73 -345 0 -346 0 -24 -25 c-32 -31
-32 -69 0 -100 l24 -25 346 0 345 0 0 -95 0 -95 -470 0 -470 0 0 255 c0 231 2
255 18 264 11 7 176 11 454 11 l437 0 15 -22z m-1254 -1033 l0 -375 -710 0
-710 0 0 375 0 375 710 0 710 0 0 -375z m1580 -905 l0 -380 -1200 0 -1201 0
-24 -25 c-31 -30 -32 -71 -3 -102 l21 -23 1204 0 1204 0 -3 -345 c-3 -315 -5
-346 -21 -362 -17 -17 -92 -18 -1473 -21 l-1455 -2 -24 24 -25 25 0 341 0 340
149 0 c163 0 183 6 197 62 5 22 0 33 -24 58 l-30 30 -146 0 -146 0 0 380 0
380 1500 0 1500 0 0 -380z m-2715 -1725 c18 -17 25 -35 25 -62 -1 -116 -158
-126 -177 -11 -5 32 -1 41 25 68 39 39 91 41 127 5z m2537 14 c31 -17 50 -71
37 -108 -24 -68 -122 -79 -160 -18 -49 79 39 171 123 126z"/>
<path d="M1865 4206 c-45 -19 -107 -95 -130 -157 -27 -73 -28 -231 -2 -306 21
-61 88 -140 134 -159 148 -62 286 87 286 311 0 224 -140 376 -288 311z m114
-190 c32 -65 34 -170 3 -239 -27 -60 -48 -69 -78 -34 -59 69 -58 242 2 308 26
29 46 20 73 -35z"/>
<path d="M1251 3134 c-27 -35 -26 -57 3 -91 l24 -28 142 0 c137 0 142 1 161
24 25 30 24 76 -1 101 -18 18 -33 20 -164 20 -144 0 -145 0 -165 -26z"/>
<path d="M2032 2263 c-12 -10 -24 -30 -28 -45 -5 -22 0 -34 25 -59 l31 -31
134 4 c115 3 137 6 155 22 27 25 28 79 1 106 -18 18 -33 20 -159 20 -118 0
-142 -3 -159 -17z"/>
<path d="M2037 1329 c-46 -27 -41 -105 9 -128 14 -6 78 -11 148 -11 110 0 126
2 150 21 33 26 36 79 6 109 -18 18 -33 20 -157 20 -78 0 -146 -5 -156 -11z"/>
<path d="M2850 3140 c-27 -27 -26 -81 1 -106 19 -17 37 -19 160 -19 129 0 140
1 160 22 27 27 29 75 4 103 -17 18 -30 20 -162 20 -130 0 -145 -2 -163 -20z"/>
</g>
</svg>
