<svg version="1.0" xmlns="http://www.w3.org/2000/svg"
 width="512pt" height="512pt" viewBox="0 0 512 512"
 preserveAspectRatio="xMidYMid meet">

<g transform="translate(0.000000,512.000000) scale(0.100000,-0.100000)"
fill="#fb9902" stroke="none">
<path d="M1885 5105 c-262 -58 -463 -251 -529 -509 -19 -74 -23 -204 -7 -233
22 -42 100 -43 122 -2 6 11 15 63 19 114 15 149 64 251 171 350 66 60 174 117
257 134 36 7 322 11 895 11 925 0 907 1 1030 -61 80 -41 194 -154 231 -230 50
-104 56 -144 56 -411 l0 -248 -1319 0 -1318 0 -7 49 c-7 56 -33 84 -76 84 -43
0 -69 -28 -76 -84 -6 -46 -8 -49 -36 -49 -16 0 -42 -7 -57 -14 -37 -20 -89
-79 -98 -114 -10 -35 -10 -349 -1 -384 10 -33 53 -85 91 -108 l29 -18 -1 -119
c-4 -308 128 -503 341 -503 l58 0 0 -59 c0 -116 41 -279 106 -419 108 -236
346 -468 581 -566 l78 -33 3 -64 3 -64 -184 3 c-221 4 -228 1 -237 -93 l-5
-58 -80 -22 c-147 -40 -282 -108 -399 -199 -33 -25 -62 -46 -65 -46 -3 0 -16
17 -29 38 -26 42 -74 78 -129 97 -37 13 -38 14 -41 69 l-3 56 289 0 289 0 21
23 c43 45 13 127 -46 127 -22 0 -22 1 -22 185 l0 185 23 0 c59 0 88 87 44 128
-23 22 -29 22 -309 22 l-285 0 -5 70 c-7 90 -42 151 -112 195 -43 26 -59 30
-121 30 -62 0 -78 -4 -121 -30 -70 -44 -105 -105 -112 -195 l-5 -70 -51 0
c-65 0 -96 -24 -96 -75 0 -51 31 -75 97 -75 l53 0 0 -185 0 -185 -53 0 c-66 0
-97 -24 -97 -75 0 -51 31 -75 97 -75 l53 0 0 -55 0 -55 -52 0 c-65 0 -127 -29
-153 -72 -19 -31 -20 -55 -23 -398 -2 -201 -1 -388 3 -417 8 -69 40 -114 93
-133 l42 -14 0 -84 c0 -55 5 -93 15 -112 33 -64 -110 -60 1933 -60 1828 0
1859 0 1879 19 29 28 36 83 28 235 -11 230 -50 385 -138 551 -152 284 -428
506 -729 584 l-73 18 -5 58 c-9 94 -16 97 -237 93 l-183 -3 0 63 0 62 43 17
c178 70 417 248 417 310 0 36 -15 59 -49 72 -33 14 -70 0 -106 -39 -65 -73
-230 -173 -356 -215 -546 -187 -1123 113 -1296 672 l-27 88 -4 393 -3 392
1000 0 1001 0 0 -362 c0 -397 -8 -462 -65 -600 -15 -35 -34 -80 -42 -100 -20
-48 -11 -84 28 -104 45 -23 83 -4 113 55 63 124 116 326 116 442 l0 59 58 0
c85 0 148 25 203 80 96 96 141 234 138 423 l-1 119 29 18 c38 23 81 75 91 108
9 35 9 349 -1 384 -9 35 -61 94 -98 114 -15 7 -41 14 -57 14 l-29 0 -6 258
c-6 282 -13 324 -71 447 -83 176 -223 299 -411 363 l-80 27 -890 2 c-710 1
-902 -1 -950 -12z m2443 -1400 c2 -142 1 -161 -15 -172 -22 -17 -2973 -19
-3004 -3 -18 10 -19 23 -19 169 0 87 3 161 7 164 3 4 686 6 1517 5 l1511 -3 3
-160z m-2678 -559 c0 -245 2 -236 -61 -236 -64 0 -119 54 -155 150 -17 46 -32
264 -21 295 5 12 27 15 122 15 l115 0 0 -224z m2556 198 c4 -14 4 -73 2 -132
-9 -186 -77 -302 -177 -302 -63 0 -61 -9 -61 236 l0 224 115 0 115 0 6 -26z
m-3125 -1153 c24 -24 29 -38 29 -75 l0 -46 -85 0 -85 0 0 46 c0 37 5 51 29 75
18 17 40 29 56 29 16 0 38 -12 56 -29z m29 -456 l0 -185 -85 0 -85 0 0 185 0
185 85 0 85 0 0 -185z m210 0 l0 -185 -30 0 -30 0 0 185 0 185 30 0 30 0 0
-185z m320 0 l0 -185 -85 0 -85 0 0 185 0 185 85 0 85 0 0 -185z m1170 -110
c85 0 169 3 186 7 l31 7 6 -89 c8 -111 28 -160 83 -209 l44 -39 0 -241 0 -241
-350 0 -350 0 0 241 0 241 44 39 c55 49 75 98 83 209 l6 89 31 -7 c17 -4 101
-7 186 -7z m-500 -510 l0 -295 -75 0 -75 0 0 295 0 295 75 0 75 0 0 -295z
m1150 0 l0 -295 -75 0 -75 0 0 295 0 295 75 0 75 0 0 -295z m-2350 230 l0 -55
-85 0 -85 0 0 55 0 55 85 0 85 0 0 -55z m900 -308 l0 -214 -39 -12 c-59 -17
-88 -58 -96 -135 -13 -117 13 -186 71 -186 57 0 84 44 84 138 l0 42 780 0 780
0 0 -260 0 -260 -779 0 -778 0 -6 62 c-5 51 -10 67 -32 85 -14 13 -35 23 -45
23 -10 0 -31 -10 -45 -23 -22 -18 -27 -34 -32 -85 l-6 -62 -263 0 -264 0 0 70
c0 69 0 70 44 110 83 77 89 100 94 378 l4 242 62 56 c108 99 230 172 366 220
109 38 100 55 100 -189z m1696 189 c218 -74 403 -218 530 -411 62 -95 96 -170
131 -285 21 -69 26 -113 30 -232 l5 -148 -325 0 -325 0 -4 288 -3 289 -28 36
c-18 23 -42 41 -67 48 l-40 12 0 214 c0 170 3 213 13 213 8 0 45 -11 83 -24z
m-2412 -115 l26 -24 0 -304 0 -303 -29 -32 -29 -33 -271 -3 -271 -3 0 366 0
366 274 -3 274 -3 26 -24z m-104 -906 l0 -55 -170 0 -170 0 0 55 0 55 170 0
170 0 0 -55z"/>
</g>
</svg>
