<svg version="1.0" xmlns="http://www.w3.org/2000/svg"
 width="512pt" height="512pt" viewBox="0 0 512 512"
 preserveAspectRatio="xMidYMid meet">

<g transform="translate(0.000000,512.000000) scale(0.100000,-0.100000)"
fill="#fb9902" stroke="none">
<path d="M800 5040 l0 -80 -235 0 -235 0 0 -195 0 -195 75 0 75 0 0 -445 0
-445 -75 0 -75 0 0 -195 0 -195 120 0 121 0 -3 -87 -3 -88 -48 -7 c-217 -31
-402 -184 -479 -398 -23 -65 -23 -68 -26 -603 -3 -521 -2 -541 18 -615 12 -42
35 -103 53 -136 36 -68 130 -169 194 -210 l43 -26 0 -195 0 -195 80 0 80 0 0
-200 0 -200 80 0 80 0 0 -165 0 -165 75 0 75 0 0 165 0 165 40 0 40 0 0 393 0
392 51 30 c63 37 156 135 197 206 17 30 41 88 54 129 23 75 23 78 23 600 0
579 0 583 -65 709 -77 149 -217 265 -364 302 l-46 11 0 94 0 94 358 -2 357 -3
3 -82 3 -83 74 0 75 0 0 86 0 85 48 -3 47 -3 3 -82 3 -83 74 0 75 0 0 85 0 85
280 0 280 0 -2 193 -3 192 -83 3 -82 3 2 442 3 442 83 3 82 3 0 74 0 75 80 0
80 0 0 75 0 75 -79 0 -80 0 -3 43 -3 42 -207 3 -208 2 0 80 0 80 -70 0 -70 0
0 -80 0 -80 -445 0 -445 0 0 80 0 80 -75 0 -75 0 0 -80z m1448 -277 l3 -43
-885 0 -886 0 0 45 0 45 883 -2 882 -3 3 -42z m-1210 -245 l3 -48 -205 0 -206
0 0 50 0 50 203 -2 202 -3 3 -47z m480 -395 l2 -443 -165 0 -165 0 0 445 0
445 163 -2 162 -3 3 -442z m562 397 l0 -50 -205 0 -205 0 0 50 0 50 205 0 205
0 0 -50z m-1042 -407 l-3 -208 -202 -3 -203 -2 0 210 0 210 205 0 205 0 -2
-207z m1042 -3 l0 -210 -205 0 -205 0 0 210 0 210 205 0 205 0 0 -210z m-1042
-392 l3 -38 -205 0 -206 0 0 40 0 40 203 -2 202 -3 3 -37z m1042 2 l0 -40
-205 0 -205 0 0 40 0 40 205 0 205 0 0 -40z m168 -237 l3 -43 -885 0 -886 0 0
45 0 45 883 -2 882 -3 3 -42z m-1516 -538 c130 -37 238 -142 291 -284 20 -53
21 -78 25 -520 4 -514 -1 -590 -47 -686 -73 -154 -232 -255 -401 -255 -193 1
-369 134 -425 323 -12 42 -15 136 -15 558 0 469 1 512 19 568 39 124 120 218
237 273 102 48 202 55 316 23z m-12 -2177 l0 -288 -45 0 -45 0 0 200 0 200
-80 0 -80 0 0 88 0 87 125 0 125 0 0 -287z"/>
<path d="M800 4115 l0 -116 73 3 72 3 3 113 3 112 -76 0 -75 0 0 -115z"/>
<path d="M1840 4115 l0 -115 70 0 70 0 0 115 0 115 -70 0 -70 0 0 -115z"/>
<path d="M320 2555 l0 -75 280 0 280 0 0 75 0 75 -280 0 -280 0 0 -75z"/>
<path d="M240 2235 l0 -75 365 0 365 0 0 75 0 75 -365 0 -365 0 0 -75z"/>
<path d="M240 1915 l0 -75 365 0 365 0 0 75 0 75 -365 0 -365 0 0 -75z"/>
<path d="M320 1595 l0 -75 280 0 280 0 0 75 0 75 -280 0 -280 0 0 -75z"/>
<path d="M2640 4805 l0 -75 768 0 c422 0 784 -3 806 -7 57 -9 106 -62 106
-114 0 -22 -7 -53 -14 -68 -30 -58 -37 -59 -352 -63 -275 -3 -291 -5 -340 -26
-211 -95 -222 -385 -19 -495 39 -22 48 -22 660 -27 588 -5 621 -6 648 -24 76
-52 75 -164 -3 -210 -22 -13 -56 -16 -157 -16 -71 0 -156 -5 -189 -11 -183
-32 -281 -230 -195 -396 39 -77 136 -142 212 -143 71 0 68 22 71 -445 3 -408
4 -421 24 -460 44 -81 100 -120 191 -135 34 -6 65 -18 80 -31 l23 -22 2 -1016
3 -1016 73 -3 72 -3 0 1028 c0 974 -1 1030 -19 1068 -36 80 -104 128 -198 141
-36 4 -59 14 -75 31 l-23 25 -5 426 c-4 372 -7 431 -21 457 -31 56 -84 89
-164 100 -64 9 -111 44 -126 94 -10 33 -9 45 7 77 36 73 53 78 252 84 131 4
186 10 213 22 165 73 211 300 87 434 -21 23 -62 52 -91 65 l-52 24 -613 3
-612 3 -34 33 c-18 19 -36 46 -38 61 -13 64 28 127 93 145 19 6 151 10 294 10
148 0 276 5 297 10 53 15 118 68 153 125 27 44 30 56 30 134 0 69 -5 94 -22
126 -29 54 -78 99 -138 127 l-50 23 -807 3 -808 3 0 -76z"/>
<path d="M1850 2640 l0 -80 -40 0 -40 0 0 -75 0 -75 155 0 155 0 0 75 0 75
-45 0 -45 0 0 80 0 80 -70 0 -70 0 0 -80z"/>
<path d="M2790 2640 l0 -80 -40 0 -40 0 0 -75 0 -75 160 0 160 0 0 75 0 75
-45 0 -45 0 0 80 0 80 -75 0 -75 0 0 -80z"/>
<path d="M3840 2640 l0 -80 -40 0 -40 0 0 -75 0 -75 160 0 160 0 0 75 0 75
-45 0 -45 0 0 80 0 80 -75 0 -75 0 0 -80z"/>
<path d="M1610 2181 c0 -116 -2 -131 -19 -143 -10 -8 -29 -30 -40 -49 l-21
-36 2 -921 c3 -917 3 -921 24 -949 11 -15 38 -38 60 -51 38 -22 44 -22 315
-20 l276 3 36 28 c77 59 72 -15 72 997 0 869 -1 907 -19 943 -10 21 -30 45
-42 54 -23 15 -24 20 -24 144 l0 129 -310 0 -310 0 0 -129z m470 -61 l0 -40
-160 0 -160 0 0 40 0 40 160 0 160 0 0 -40z m78 -202 c9 -9 12 -122 12 -445
l0 -433 -165 0 -165 0 0 -355 0 -355 163 -2 162 -3 3 -60 c2 -32 1 -69 -3 -82
l-5 -23 -240 0 -240 0 0 878 c0 483 3 882 7 885 12 13 458 8 471 -5z m10
-1235 l2 -203 -95 0 -95 0 0 198 c0 109 3 202 7 206 4 4 46 5 93 4 l85 -3 3
-202z"/>
<path d="M2550 2171 c0 -117 -3 -141 -17 -152 -43 -36 -43 -32 -43 -980 0
-891 0 -902 21 -938 11 -20 36 -48 56 -61 36 -25 39 -25 287 -28 138 -2 266 0
284 3 37 7 96 55 118 96 12 24 14 162 14 929 0 982 3 936 -56 991 -23 22 -24
28 -24 151 l0 128 -320 0 -320 0 0 -139z m490 -51 l0 -40 -170 0 -170 0 0 40
0 40 170 0 170 0 0 -40z m64 -196 c14 -5 16 -54 16 -445 l0 -439 -160 0 -160
0 0 -355 0 -355 160 0 161 0 -3 -82 -3 -83 -230 -3 c-207 -2 -231 -1 -242 15
-10 13 -13 203 -13 869 0 762 2 854 16 868 13 14 48 16 229 16 117 0 220 -3
229 -6z m16 -1239 l0 -205 -85 0 -85 0 0 205 0 205 85 0 85 0 0 -205z"/>
<path d="M3600 2155 l0 -154 -30 -43 c-21 -30 -34 -63 -41 -108 -6 -39 -8
-293 -7 -635 l3 -570 73 -3 72 -3 1 588 c0 633 1 639 52 677 25 19 45 21 175
24 167 4 211 -5 241 -47 20 -28 21 -42 21 -435 l0 -406 -155 0 -155 0 0 -200
0 -200 75 0 75 0 0 125 0 125 80 0 79 0 3 -122 3 -123 73 -3 72 -3 0 618 0
618 -24 51 c-13 28 -29 55 -35 58 -7 5 -11 61 -11 167 l0 159 -320 0 -320 0 0
-155z m490 -35 l0 -40 -170 0 -170 0 0 40 0 40 170 0 170 0 0 -40z"/>
<path d="M3354 533 c3 -16 24 -131 46 -258 23 -126 43 -238 46 -247 5 -16 23
-18 200 -18 107 0 194 2 194 4 0 1 18 115 40 252 22 137 40 259 40 272 l0 22
-286 0 -286 0 6 -27z m396 -128 c0 -10 -30 -200 -35 -222 -5 -21 -11 -23 -75
-23 -39 0 -70 4 -70 8 0 5 -9 58 -20 118 -11 60 -20 112 -20 117 0 4 50 7 110
7 61 0 110 -2 110 -5z"/>
<path d="M3995 528 c3 -18 25 -141 49 -273 l43 -240 196 -3 c108 -1 197 0 197
3 0 3 18 118 40 255 22 137 40 259 40 270 0 20 -6 20 -285 20 l-286 0 6 -32z
m395 -124 c0 -9 -30 -193 -36 -221 -4 -21 -10 -23 -73 -23 l-68 0 -17 93 c-9
50 -19 107 -22 125 l-6 32 111 0 c61 0 111 -3 111 -6z"/>
</g>
</svg>
