<svg width="20" height="20" viewBox="0 0 20 20" fill="none" xmlns="http://www.w3.org/2000/svg">
<path fill-rule="evenodd" clip-rule="evenodd" d="M6.82132 3.29897C6.66101 2.66042 6.37493 2.59279 6.12959 2.54748C5.91541 2.49314 5.6836 2.45033 5.43826 2.40501C5.20814 2.36251 4.80364 2.37654 4.41135 2.67552C4.01837 2.97353 2.96671 3.65529 2.67357 5.39665C2.38029 7.13885 3.36669 9.05739 3.50135 9.31975C3.63516 9.58195 5.29582 13.6875 8.6649 15.7799C11.4679 17.5146 12.1133 17.3963 12.7752 17.4438C13.4362 17.492 15.0112 16.9816 15.4547 16.2024C15.8812 15.4356 16.0024 14.7159 15.9404 14.5556C15.8781 14.3963 15.6466 14.2639 15.3322 14.0128C14.9999 13.7738 13.4135 12.5901 13.1013 12.4133C12.7881 12.2371 12.5668 12.137 12.2778 12.4395C11.9862 12.7571 11.1744 13.4232 10.92 13.6136C10.6781 13.8065 10.4575 13.7953 10.1398 13.5583C9.80842 13.3196 8.73098 12.7344 7.57749 11.2747C6.68098 10.1436 6.16986 8.84784 6.01135 8.46277C5.87065 8.06534 6.07476 7.90991 6.2917 7.77165C6.47731 7.64325 6.72311 7.42159 6.93049 7.25198C7.13716 7.08138 7.22125 6.93423 7.39031 6.72797C7.54415 6.5189 7.52298 6.2923 7.46565 6.10425C7.40522 5.92954 7.02069 4.06303 6.82132 3.29897Z" fill="#fb9902"/>
</svg>
