<svg width="20" height="20" viewBox="0 0 20 20" xmlns="http://www.w3.org/2000/svg">
<path d="M16.8574 2.85013C16.3604 2.416 14.3492 1.032 9.86492 1.01344C9.86492 1.01344 4.57854 0.712895 2.00382 2.95402C0.571698 4.31205 0.0669258 6.30458 0.0121452 8.77205C-0.0426364 11.2395 -0.109156 15.8627 4.59027 17.1169H4.59419L4.59027 19.0315C4.59027 19.0315 4.55897 19.807 5.09896 19.9628C5.7485 20.1558 6.13198 19.5658 6.75413 18.9313C7.09455 18.5825 7.56411 18.0704 7.92018 17.6809C11.1366 17.9369 13.6057 17.3506 13.8874 17.2653C14.537 17.065 18.2112 16.6197 18.806 11.9964C19.4243 7.22478 18.5086 4.21187 16.8574 2.85013ZM17.4012 11.6476C16.8964 15.5065 13.9187 15.7514 13.3709 15.9184C13.1361 15.9889 10.9644 16.501 8.23713 16.334C8.23713 16.334 6.20241 18.6604 5.56851 19.2653C5.36113 19.4619 5.13417 19.4434 5.13809 19.0538C5.13809 18.7978 5.15373 15.8738 5.15373 15.8738C5.14983 15.8738 5.14983 15.8738 5.15373 15.8738C1.17037 14.8275 1.40515 10.8908 1.4482 8.83141C1.49124 6.7721 1.90209 5.08383 3.1151 3.94843C5.29461 2.07463 9.78278 2.35292 9.78278 2.35292C13.5744 2.36777 15.39 3.45122 15.8126 3.81485C17.2095 4.95026 17.9217 7.66632 17.4012 11.6476ZM11.9622 8.6496C11.9779 8.9687 11.4732 8.99096 11.4574 8.67186C11.4145 7.85555 11.0114 7.45853 10.1819 7.41401C9.84539 7.39546 9.87664 6.91681 10.2092 6.93536C11.301 6.99102 11.9075 7.5847 11.9622 8.6496ZM12.7566 9.06888C12.7957 7.49564 11.7588 6.26376 9.7906 6.12648C9.45797 6.10421 9.49319 5.62556 9.82576 5.64782C12.0953 5.80367 13.3044 7.28414 13.2613 9.08001C13.2574 9.39911 12.7487 9.38427 12.7566 9.06888ZM14.5956 9.56608C14.5996 9.88518 14.0908 9.8889 14.0908 9.56979C14.0674 6.54576 11.9427 4.89831 9.36406 4.87976C9.03146 4.87604 9.03146 4.4011 9.36406 4.4011C12.2479 4.41965 14.5683 6.30829 14.5956 9.56608ZM14.1534 13.2061V13.2135C13.7309 13.9185 12.9405 14.6977 12.1266 14.449L12.1188 14.4379C11.2932 14.2191 9.3484 13.2692 8.11974 12.3415C7.48585 11.8666 6.90673 11.3063 6.46066 10.7682C6.05763 10.2896 5.65068 9.72193 5.25548 9.0392C4.42203 7.61066 4.23811 6.97246 4.23811 6.97246C3.97594 6.20068 4.79375 5.45117 5.54112 5.05044H5.54895C5.90893 4.87234 6.25327 4.93171 6.48414 5.19515C6.48414 5.19515 6.96935 5.7443 7.17673 6.01516C7.37237 6.26748 7.63454 6.67192 7.7715 6.89825C8.01018 7.30269 7.86149 7.71455 7.62672 7.88524L7.15717 8.24144C6.91847 8.42326 6.94977 8.76091 6.94977 8.76091C6.94977 8.76091 7.64628 11.2581 10.2484 11.8888C10.2484 11.8888 10.6045 11.9185 10.7962 11.6922L11.1719 11.247C11.3519 11.0243 11.7862 10.8833 12.2126 11.1096C12.7879 11.4176 13.5196 11.8962 14.0048 12.3304C14.2787 12.5418 14.3413 12.8647 14.1534 13.2061Z" fill="#fb9902"/>
</svg>
