<svg width="20" height="20" viewBox="0 0 20 20" xmlns="http://www.w3.org/2000/svg">
<path d="M1 19L2.27613 14.3822C1.49202 13.0275 1.08025 11.4911 1.08226 9.92768C1.07318 5.00094 5.09228 1 10.0318 1C12.4292 1 14.6801 1.92525 16.375 3.61306C17.2105 4.44039 17.8727 5.42454 18.3232 6.50849C18.7738 7.59243 19.0038 8.75461 19 9.92768C19 14.8449 14.9808 18.8458 10.0408 18.8458C8.53715 18.8458 7.06979 18.4736 5.75733 17.7573L1 19ZM5.96725 16.1514L6.24075 16.3146C7.3887 16.9908 8.6979 17.348 10.0318 17.3489C14.1331 17.3489 17.4781 14.0196 17.4781 9.93619C17.4781 7.95858 16.7036 6.08999 15.2997 4.69306C14.6094 4.00198 13.7885 3.45372 12.8845 3.07991C11.9803 2.70608 11.0107 2.51409 10.0318 2.51498C5.92132 2.51551 2.57741 5.84484 2.57741 9.92821C2.57741 11.3252 2.96948 12.6955 3.71679 13.8749L3.88986 14.1562L3.13348 16.8958L5.96725 16.1514Z" fill="#fb9902"/>
<path fill-rule="evenodd" clip-rule="evenodd" d="M7.55351 6.37142C7.3733 6.01721 7.17312 6.0086 7.00289 6.0086C6.85261 6 6.69177 6 6.52154 6C6.36188 6 6.09126 6.05162 5.86115 6.26768C5.63046 6.48325 5 6.99282 5 8.03725C5 9.08219 5.88111 10.0922 6.00145 10.2304C6.1212 10.3685 7.70378 12.5783 10.208 13.4335C12.2907 14.1414 12.7116 14.0033 13.1624 13.9598C13.6126 13.9168 14.6147 13.4507 14.8248 12.9498C15.025 12.4579 15.025 12.0263 14.9651 11.9397C14.9052 11.8537 14.7344 11.8015 14.4944 11.6892C14.2437 11.586 13.0421 11.0678 12.812 10.9985C12.5813 10.9297 12.421 10.8952 12.2608 11.1022C12.1005 11.3183 11.6297 11.793 11.4801 11.9311C11.3392 12.0693 11.1895 12.0865 10.9488 11.9828C10.6988 11.8795 9.90743 11.6548 8.96586 10.9297C8.23444 10.368 7.7437 9.66918 7.59342 9.46222C7.45371 9.24614 7.57346 9.1338 7.70378 9.03007C7.81414 8.93544 7.95444 8.78009 8.07477 8.65915C8.19452 8.53771 8.23444 8.44308 8.32484 8.30494C8.40468 8.16679 8.36476 8.03725 8.30488 7.93403C8.24443 7.83889 7.77422 6.79446 7.55351 6.37142Z" fill="#fb9902"/>
</svg>
